<svg width="30" height="29" viewBox="0 0 30 29" version="1.1" xmlns="http://www.w3.org/2000/svg" xmlns:xlink="http://www.w3.org/1999/xlink">
<g id="Canvas" transform="translate(-14286 1561)">
<g id="Vector">
<use xlink:href="#path0_fill" transform="matrix(-0.707107 -0.707107 0.707107 -0.707107 14301 -1532.69)" fill="#D50000"/>
</g>
</g>
<defs>
<path id="path0_fill" d="M 20.0025 18.2006L 13.262 11.46L 17.4556 7.26643C 17.7676 6.95443 17.8962 6.50362 17.7943 6.07445C 17.6924 5.64529 17.3766 5.2989 16.9576 5.15882L 1.67584 0.0648808C 1.21738 -0.0866638 0.713084 0.0317702 0.373064 0.373064C 0.0317702 0.713084 -0.0866638 1.21738 0.0648808 1.67456L 5.15882 16.9564C 5.2989 17.3741 5.64529 17.6912 6.07445 17.7931C 6.17251 17.816 6.2693 17.8274 6.36735 17.8274C 6.70101 17.8274 7.02702 17.695 7.26771 17.4543L 11.4613 13.2607L 18.2018 20L 20.0025 18.2006ZM 6.92387 14.1955L 3.2868 3.2868L 14.198 6.92259L 6.92387 14.1955Z"/>
</defs>
</svg>
