<?xml version="1.0" encoding="utf-8"?>
<!-- Generator: Adobe Illustrator 22.0.1, SVG Export Plug-In . SVG Version: 6.00 Build 0)  -->
<svg version="1.1" id="Layer_1" xmlns="http://www.w3.org/2000/svg" xmlns:xlink="http://www.w3.org/1999/xlink" x="0px" y="0px"
	 viewBox="0 0 512 300.8" style="enable-background:new 0 0 512 300.8;" xml:space="preserve">
<style type="text/css">
	.st0{fill:#FFFFFF;}
	.st1{fill:#BD0034;}
	.st2{fill:#1A237B;}
</style>
<g>
	<rect y="1.2" class="st0" width="512" height="298.7"/>
	<polygon class="st1" points="342.8,109.2 512,14.4 512,1.2 500.3,1.2 307.4,109.2 	"/>
	<polygon class="st1" points="334.8,197.9 512,297 512,277.2 370.2,197.9 	"/>
	<polygon class="st1" points="0,23.9 151.5,109.2 187,109.2 0,4 	"/>
	<polygon class="st1" points="178.9,197.9 0,298.1 0,299.9 32.3,299.9 214.4,197.9 	"/>
	<polygon class="st2" points="477,1.2 297.7,1.2 297.7,101.6 	"/>
	<polygon class="st2" points="218.5,1.2 40,1.2 218.5,101.6 	"/>
	<polygon class="st2" points="512,109.2 512,40.6 390.4,109.2 	"/>
	<polygon class="st2" points="512,265.6 512,197.9 390.4,197.9 	"/>
	<polygon class="st2" points="50.1,299.9 218.5,299.9 218.5,205.4 	"/>
	<polygon class="st2" points="297.7,299.9 466.6,299.9 297.7,205.4 	"/>
	<polygon class="st2" points="0,197.9 0,268.7 125.8,197.9 	"/>
	<polygon class="st2" points="0,109.2 125.8,109.2 0,38.2 	"/>
	<polygon class="st1" points="234.4,1.2 234.4,126.9 0,126.9 0,180.1 234.4,180.1 234.4,299.9 281.9,299.9 281.9,180.1 512,180.1 
		512,126.9 281.9,126.9 281.9,1.2 	"/>
</g>
</svg>
