<svg width="107" height="120" viewBox="0 0 107 120" version="1.1" xmlns="http://www.w3.org/2000/svg" xmlns:xlink="http://www.w3.org/1999/xlink">
<title>Group 4</title>
<desc>Created using Figma</desc>
<g id="Canvas" transform="translate(-13984 2674)">
<g id="Group 4">
<g id="Group">
<g id="Vector (Stroke)">
<use xlink:href="#path0_fill" transform="translate(14043.5 -2590)"/>
</g>
<g id="Vector (Stroke)">
<use xlink:href="#path0_fill" transform="matrix(-1 0 0 1 14031.5 -2590)"/>
</g>
<g id="Ellipse (Stroke)">
<use xlink:href="#path1_fill" transform="translate(14022 -2628)"/>
</g>
</g>
<g id="Group 3">
<g id="Group 2">
<g id="Line (Stroke)">
<use xlink:href="#path2_fill" transform="matrix(-6.12323e-17 1 1 6.12323e-17 13993 -2626)" fill="#D50000"/>
</g>
<g id="Line (Stroke)">
<use xlink:href="#path3_fill" transform="matrix(-0.854114 0.520086 0.520086 0.854114 14024 -2660.71)" fill="#D50000"/>
</g>
<g id="Union">
<use xlink:href="#path4_fill" transform="matrix(-1 0 0 1 14016.5 -2647)" fill="#D50000"/>
</g>
<g id="Union">
<use xlink:href="#path5_fill" transform="matrix(-1 0 -0 -1 14016.5 -2580.22)" fill="#D50000"/>
</g>
</g>
<g id="Group 2.1">
<g id="Line (Stroke)">
<use xlink:href="#path2_fill" transform="matrix(6.12323e-17 1 -1 6.12323e-17 14082 -2626)" fill="#D50000"/>
</g>
<g id="Line (Stroke)">
<use xlink:href="#path3_fill" transform="matrix(0.854114 0.520086 -0.520086 0.854114 14051 -2660.71)" fill="#D50000"/>
</g>
<g id="Union">
<use xlink:href="#path4_fill" transform="translate(14058.5 -2647)" fill="#D50000"/>
</g>
<g id="Union">
<use xlink:href="#path5_fill" transform="matrix(1 0 0 -1 14058.5 -2580.22)" fill="#D50000"/>
</g>
</g>
<g id="Union">
<use xlink:href="#path4_fill" transform="matrix(0.431237 -0.902238 0.902238 0.431237 14019 -2647.65)" fill="#D50000"/>
</g>
</g>
</g>
</g>
<defs>
<path id="path0_fill" fill-rule="evenodd" d="M 1 0C 1.55228 0 2 0.447715 2 1C 2 1.45135 2.12313 2.13106 2.45099 2.66232C 2.74596 3.14028 3.19547 3.5 4 3.5L 14 3.5C 14.039 3.5 14.0781 3.50229 14.1168 3.50685C 15.6704 3.68962 17.9733 4.36488 19.914 5.82613C 21.889 7.31319 23.5 9.63166 23.5 13L 23.5 34.5C 23.5 35.0523 23.0523 35.5 22.5 35.5C 21.9477 35.5 21.5 35.0523 21.5 34.5L 21.5 13C 21.5 10.3683 20.2777 8.60348 18.711 7.42387C 17.1334 6.23601 15.2196 5.66059 13.9395 5.5L 4 5.5C 2.40453 5.5 1.35404 4.69305 0.74901 3.71268C 0.17687 2.7856 0 1.71532 0 1C 0 0.447715 0.447715 0 1 0ZM 11.5 22.5C 12.0523 22.5 12.5 22.9477 12.5 23.5L 12.5 34.5C 12.5 35.0523 12.0523 35.5 11.5 35.5C 10.9477 35.5 10.5 35.0523 10.5 34.5L 10.5 23.5C 10.5 22.9477 10.9477 22.5 11.5 22.5Z"/>
<path id="path1_fill" fill-rule="evenodd" d="M 15.5 34C 22.6856 34 29 27.1277 29 18C 29 8.87233 22.6856 2 15.5 2C 8.31435 2 2 8.87233 2 18C 2 27.1277 8.31435 34 15.5 34ZM 15.5 36C 24.0604 36 31 27.9411 31 18C 31 8.05887 24.0604 0 15.5 0C 6.93959 0 0 8.05887 0 18C 0 27.9411 6.93959 36 15.5 36Z"/>
<path id="path2_fill" fill-rule="evenodd" d="M 0 1C 0 0.447715 0.447715 0 1 0L 23 0C 23.5523 0 24 0.447715 24 1C 24 1.55228 23.5523 2 23 2L 1 2C 0.447715 2 0 1.55228 0 1Z"/>
<path id="path3_fill" fill-rule="evenodd" d="M 0 1C 0 0.447715 0.447715 0 1 0L 25.2276 0C 25.7799 0 26.2276 0.447715 26.2276 1C 26.2276 1.55228 25.7799 2 25.2276 2L 1 2C 0.447715 2 0 1.55228 0 1Z"/>
<path id="path4_fill" fill-rule="evenodd" d="M 30.5285 9C 30.5285 12.8662 27.3947 16 23.5285 16C 19.6623 16 16.5285 12.8662 16.5285 9C 16.5285 5.13379 19.6623 2 23.5285 2C 27.3947 2 30.5285 5.13379 30.5285 9ZM 32.5285 9C 32.5285 13.9707 28.4992 18 23.5285 18C 20.3127 18 17.4914 16.314 15.8996 13.7773L 1.43088 20.6831C 0.932835 20.9209 0.336155 20.7095 0.0978735 20.2114C -0.140408 19.7129 0.0715064 19.1157 0.569553 18.8779L 15.0324 11.9756C 14.7063 11.0439 14.5285 10.043 14.5285 9C 14.5285 4.0293 18.5578 0 23.5285 0C 28.4992 0 32.5285 4.0293 32.5285 9Z"/>
<path id="path5_fill" fill-rule="evenodd" d="M 0.569553 18.8779C 0.0715064 19.1157 -0.140408 19.7129 0.0978735 20.2114C 0.336155 20.7095 0.932835 20.9209 1.43088 20.6831L 15.8996 13.7773C 17.4914 16.314 20.3127 18 23.5285 18C 28.4992 18 32.5285 13.9707 32.5285 9C 32.5285 4.0293 28.4992 0 23.5285 0C 18.5578 0 14.5285 4.0293 14.5285 9C 14.5285 10.043 14.7063 11.0439 15.0324 11.9756L 0.569553 18.8779ZM 30.5285 9C 30.5285 12.8662 27.3947 16 23.5285 16C 19.6623 16 16.5285 12.8662 16.5285 9C 16.5285 5.13379 19.6623 2 23.5285 2C 27.3947 2 30.5285 5.13379 30.5285 9Z"/>
</defs>
</svg>
