<svg width="107" height="131" viewBox="0 0 107 131" version="1.1" xmlns="http://www.w3.org/2000/svg" xmlns:xlink="http://www.w3.org/1999/xlink">
<title>Group 6</title>
<desc>Created using Figma</desc>
<g id="Canvas" transform="translate(-14265 2673)">
<g id="Group 6">
<g id="Union">
<use xlink:href="#path0_fill" transform="translate(14294 -2639)"/>
</g>
<g id="Group 5">
<g id="Line (Stroke)">
<use xlink:href="#path1_fill" transform="matrix(-6.12323e-17 1 1 6.12323e-17 14274 -2625)" fill="#D50000"/>
</g>
<g id="Line (Stroke)">
<use xlink:href="#path2_fill" transform="matrix(-0.854114 0.520086 0.520086 0.854114 14305 -2659.71)" fill="#D50000"/>
</g>
<g id="Union">
<use xlink:href="#path3_fill" transform="matrix(-1 0 0 1 14293.5 -2646)" fill="#D50000"/>
</g>
<g id="Union">
<use xlink:href="#path4_fill" transform="matrix(-1 0 0 -1 14293.5 -2579.22)" fill="#D50000"/>
</g>
<g id="Group 2.1">
<g id="Line (Stroke)">
<use xlink:href="#path1_fill" transform="matrix(6.12323e-17 1 -1 6.12323e-17 14363 -2625)" fill="#D50000"/>
</g>
<g id="Line (Stroke)">
<use xlink:href="#path2_fill" transform="matrix(0.854114 0.520086 -0.520086 0.854114 14332 -2659.71)" fill="#D50000"/>
</g>
<g id="Union">
<use xlink:href="#path3_fill" transform="translate(14343.5 -2646)" fill="#D50000"/>
</g>
<g id="Union">
<use xlink:href="#path5_fill" transform="matrix(1 0 0 -1 14343.5 -2579.22)" fill="#D50000"/>
</g>
</g>
<g id="Union">
<use xlink:href="#path6_fill" transform="matrix(0.431237 -0.902238 0.902238 0.431237 14302.3 -2651.54)" fill="#D50000"/>
</g>
</g>
</g>
</g>
<defs>
<path id="path0_fill" fill-rule="evenodd" d="M 29 48.5874C 40.3818 46.4746 49 36.4937 49 24.5C 49 10.9692 38.0312 0 24.5 0C 10.9688 0 0 10.9692 0 24.5C 0 36.1396 8.11719 45.8843 19 48.3804L 19 54L 17 54C 16.4473 54 16 54.4478 16 55C 16 55.5522 16.4473 56 17 56L 19 56L 19 61.5L 16 61.5L 16 89.0356L 16.0029 89.0713C 16.0967 90.3848 16.5938 92.3276 17.8086 93.9697C 19.0547 95.6538 21.0479 97 24 97C 26.9521 97 28.9453 95.6538 30.1914 93.9697C 31.4062 92.3276 31.9033 90.3848 31.9971 89.0713L 32 89.0356L 32 61.5L 29 61.5L 29 56L 31 56C 31.5527 56 32 55.5522 32 55C 32 54.4478 31.5527 54 31 54L 29 54L 29 48.5874ZM 47 24.5C 47 36.9263 36.9268 47 24.5 47C 12.0732 47 2 36.9263 2 24.5C 2 12.0737 12.0732 2 24.5 2C 36.9268 2 47 12.0737 47 24.5ZM 27 48.874C 26.1777 48.9575 25.3438 49 24.5 49C 23.3115 49 22.1436 48.9155 21 48.752L 21 54L 27 54L 27 48.874ZM 27 56L 27 61.5L 21 61.5L 21 56L 27 56ZM 18 63.5L 18 88.9629C 18.0791 89.9834 18.4834 91.5195 19.416 92.7803C 20.3291 94.0132 21.752 95 24 95C 26.248 95 27.6709 94.0132 28.584 92.7803C 29.5166 91.5195 29.9209 89.9834 30 88.9629L 30 63.5L 18 63.5Z"/>
<path id="path1_fill" fill-rule="evenodd" d="M 0 1C 0 0.447715 0.447715 0 1 0L 23 0C 23.5523 0 24 0.447715 24 1C 24 1.55228 23.5523 2 23 2L 1 2C 0.447715 2 0 1.55228 0 1Z"/>
<path id="path2_fill" fill-rule="evenodd" d="M 0 1C 0 0.447715 0.447715 0 1 0L 25.2276 0C 25.7799 0 26.2276 0.447715 26.2276 1C 26.2276 1.55228 25.7799 2 25.2276 2L 1 2C 0.447715 2 0 1.55228 0 1Z"/>
<path id="path3_fill" fill-rule="evenodd" d="M 26.5285 9C 26.5285 12.8662 23.3947 16 19.5285 16C 15.6623 16 12.5285 12.8662 12.5285 9C 12.5285 5.13379 15.6623 2 19.5285 2C 23.3947 2 26.5285 5.13379 26.5285 9ZM 28.5285 9C 28.5285 13.9707 24.4992 18 19.5285 18C 16.3127 18 13.4914 16.314 11.8996 13.7773L 1.43088 18.6831C 0.932835 18.9209 0.336155 18.7095 0.0978735 18.2114C -0.140408 17.7129 0.0715064 17.1157 0.569553 16.8779L 11.0324 11.9756C 10.7063 11.0439 10.5285 10.043 10.5285 9C 10.5285 4.0293 14.5578 0 19.5285 0C 24.4992 0 28.5285 4.0293 28.5285 9Z"/>
<path id="path4_fill" fill-rule="evenodd" d="M 0.569553 17.8779C 0.0715064 18.1157 -0.140408 18.7129 0.0978735 19.2114C 0.336155 19.7095 0.932835 19.9209 1.43088 19.6831L 11.8996 13.7773C 13.4914 16.314 16.3127 18 19.5285 18C 24.4992 18 28.5285 13.9707 28.5285 9C 28.5285 4.0293 24.4992 0 19.5285 0C 14.5578 0 10.5285 4.0293 10.5285 9C 10.5285 10.043 10.7063 11.0439 11.0324 11.9756L 0.569553 17.8779ZM 26.5285 9C 26.5285 12.8662 23.3947 16 19.5285 16C 15.6623 16 12.5285 12.8662 12.5285 9C 12.5285 5.13379 15.6623 2 19.5285 2C 23.3947 2 26.5285 5.13379 26.5285 9Z"/>
<path id="path5_fill" fill-rule="evenodd" d="M 0.569553 16.8779C 0.0715064 17.1157 -0.140408 17.7129 0.0978735 18.2114C 0.336155 18.7095 0.932835 18.9209 1.43088 18.6831L 11.8996 13.7773C 13.4914 16.314 16.3127 18 19.5285 18C 24.4992 18 28.5285 13.9707 28.5285 9C 28.5285 4.0293 24.4992 0 19.5285 0C 14.5578 0 10.5285 4.0293 10.5285 9C 10.5285 10.043 10.7063 11.0439 11.0324 11.9756L 0.569553 16.8779ZM 26.5285 9C 26.5285 12.8662 23.3947 16 19.5285 16C 15.6623 16 12.5285 12.8662 12.5285 9C 12.5285 5.13379 15.6623 2 19.5285 2C 23.3947 2 26.5285 5.13379 26.5285 9Z"/>
<path id="path6_fill" fill-rule="evenodd" d="M 25.1151 9C 25.1151 12.8662 21.9813 16 18.1151 16C 14.2489 16 11.1151 12.8662 11.1151 9C 11.1151 5.13379 14.2489 2 18.1151 2C 21.9813 2 25.1151 5.13379 25.1151 9ZM 27.1151 9C 27.1151 13.9707 23.0858 18 18.1151 18C 14.8993 18 12.078 16.314 10.4862 13.7773L 1.43088 18.0957C 0.932835 18.3335 0.336155 18.122 0.0978735 17.624C -0.140408 17.1255 0.0715064 16.5283 0.569553 16.2905L 9.61901 11.9756C 9.29284 11.0439 9.1151 10.043 9.1151 9C 9.1151 4.0293 13.1444 0 18.1151 0C 23.0858 0 27.1151 4.0293 27.1151 9Z"/>
</defs>
</svg>
