<svg width="96" height="116" viewBox="0 0 96 116" version="1.1" xmlns="http://www.w3.org/2000/svg" xmlns:xlink="http://www.w3.org/1999/xlink">
<title>Group 7</title>
<desc>Created using Figma</desc>
<g id="Canvas" transform="translate(-14541 2674)">
<g id="Group 7">
<g id="Union">
<use xlink:href="#path0_fill" transform="matrix(0.707107 0.707107 -0.707107 0.707107 14588.8 -2666)" fill="#D50000"/>
</g>
<g id="Line (Stroke)">
<use xlink:href="#path1_fill" transform="matrix(6.12323e-17 1 -1 6.12323e-17 14590 -2674)" fill="#D50000"/>
</g>
<g id="Line (Stroke)">
<use xlink:href="#path1_fill" transform="matrix(-1 1.22465e-16 -1.22465e-16 -1 14637 -2605)"/>
</g>
<g id="Line (Stroke)">
<use xlink:href="#path1_fill" transform="matrix(-1 1.22465e-16 -1.22465e-16 -1 14637 -2582)"/>
</g>
<g id="Line (Stroke)">
<use xlink:href="#path1_fill" transform="matrix(-1 1.22465e-16 -1.22465e-16 -1 14631 -2593)"/>
</g>
<g id="Line (Stroke)">
<use xlink:href="#path1_fill" transform="matrix(1 1.22465e-16 1.22465e-16 -1 14541 -2605)"/>
</g>
<g id="Line (Stroke)">
<use xlink:href="#path1_fill" transform="matrix(1 1.22465e-16 1.22465e-16 -1 14541 -2582)"/>
</g>
<g id="Line (Stroke)">
<use xlink:href="#path1_fill" transform="matrix(1 1.22465e-16 1.22465e-16 -1 14547 -2593)"/>
</g>
<g id="Line (Stroke)">
<use xlink:href="#path2_fill" transform="matrix(-0.707107 0.707107 -0.707107 -0.707107 14620.6 -2670.59)" fill="#D50000"/>
</g>
<g id="Line (Stroke)">
<use xlink:href="#path2_fill" transform="matrix(0.707107 0.707107 0.707107 -0.707107 14556 -2670.59)" fill="#D50000"/>
</g>
<g id="Union">
<use xlink:href="#path3_fill" transform="matrix(0.707107 0.707107 -0.707107 0.707107 14589.6 -2660)"/>
</g>
</g>
</g>
<defs>
<path id="path0_fill" fill-rule="evenodd" d="M 16.2637 0.341625C 16.291 0.31184 16.3203 0.28352 16.3506 0.257641C 16.5908 0.0403558 16.9111 -0.039234 17.21 0.0178949L 34 0.0178949C 34.0039 0.0178949 34.0088 0.0178949 34.0127 0.0178949C 34.2705 0.0164301 34.5303 0.114086 34.7275 0.310864C 34.9746 0.557934 35.0654 0.901684 35 1.22004L 35 34.0179C 35 34.5701 34.5527 35.0179 34 35.0179L 1 35.0179C 0.447266 35.0179 0 34.5701 0 34.0179L 0 17.0179C 0 16.9315 0.0107422 16.8504 0.03125 16.7703C -0.0214844 16.4578 0.0751953 16.1258 0.319336 15.8875L 16.2637 0.341625ZM 10.4336 20.9984L 2.17676 16.8699L 8.50293 10.7015L 10.4336 20.9984ZM 21.1494 9.576L 11.7275 7.55696L 17.4092 2.01789L 17.4854 2.01789L 21.1494 9.576ZM 31.6064 2.01789L 19.708 2.01789L 23.5928 10.0311L 31.6064 2.01789ZM 24.5166 11.9359L 33 3.45247L 33 29.4334L 24.5166 11.9359ZM 21.8525 11.7718L 10.2734 9.29084L 12.4932 21.1312L 21.8525 11.7718ZM 13.7803 22.6717L 23.0195 13.4329L 31.8877 31.7254L 13.7803 22.6717ZM 10.4043 23.2196L 2 19.0174L 2 31.6243L 10.4043 23.2196ZM 3.43457 33.0179L 12.29 24.1624L 30 33.0179L 3.43457 33.0179Z"/>
<path id="path1_fill" fill-rule="evenodd" d="M 0 1C 0 0.447715 0.242512 0 0.541667 0L 12.4583 0C 12.7575 0 13 0.447715 13 1C 13 1.55228 12.7575 2 12.4583 2L 0.541667 2C 0.242512 2 0 1.55228 0 1Z"/>
<path id="path2_fill" fill-rule="evenodd" d="M 0 1C 0 0.447715 0.218052 0 0.487032 0L 11.2017 0C 11.4707 0 11.6888 0.447715 11.6888 1C 11.6888 1.55228 11.4707 2 11.2017 2L 0.487032 2C 0.218052 2 0 1.55228 0 1Z"/>
<path id="path3_fill" fill-rule="evenodd" d="M 42 0L 42 6L 41 6L 41 41L 6 41L 6 42L 0 42L 0 51L 6 51L 6 52L 41 52L 41 87L 41.3535 87L 45.5879 96.4102C 45.75 96.769 46.1064 97 46.5 97C 46.8936 97 47.25 96.769 47.4121 96.4102L 51.6465 87L 52 87L 52 52L 87 52L 87 51.6465L 96.4102 47.4121C 96.7695 47.25 97 46.8936 97 46.5C 97 46.1064 96.7695 45.75 96.4102 45.5879L 87 41.3535L 87 41L 52 41L 52 6L 51 6L 51 0L 42 0ZM 50 41L 50 8L 43 8L 43 41L 50 41ZM 43 43L 50 43L 50 50L 43 50L 43 43ZM 41 43L 8 43L 8 50L 41 50L 41 43ZM 43 52L 43 85L 50 85L 50 52L 43 52ZM 52 50L 52 43L 85 43L 85 50L 52 50ZM 49 2L 44 2L 44 6L 49 6L 49 2ZM 43.5469 87L 46.5 93.563L 49.4531 87L 43.5469 87ZM 2 44L 2 49L 6 49L 6 44L 2 44ZM 87 49.4531L 93.5625 46.5L 87 43.5469L 87 49.4531Z"/>
</defs>
</svg>
