<svg width="78" height="123" viewBox="0 0 78 123" version="1.1" xmlns="http://www.w3.org/2000/svg" xmlns:xlink="http://www.w3.org/1999/xlink">
<title>Group</title>
<desc>Created using Figma</desc>
<g id="Canvas" transform="translate(-21086 1434)">
<g id="Group">
<g id="Group">
<g id="Group">
<g id="Vector">
<use xlink:href="#path0_fill" transform="translate(21086.6 -1347.6)" fill="#FFFFFF"/>
</g>
<g id="Vector">
<use xlink:href="#path1_fill" transform="translate(21099.4 -1347.6)" fill="#FFFFFF"/>
</g>
<g id="Vector">
<use xlink:href="#path2_fill" transform="translate(21111.8 -1347.79)" fill="#FFFFFF"/>
</g>
<g id="Vector">
<use xlink:href="#path3_fill" transform="translate(21123.7 -1396.12)" fill="#FFFFFF"/>
</g>
<g id="Vector">
<use xlink:href="#path4_fill" transform="translate(21144.1 -1347.6)" fill="#FFFFFF"/>
</g>
<g id="Vector">
<use xlink:href="#path5_fill" transform="translate(21156.1 -1347.6)" fill="#FFFFFF"/>
</g>
<g id="Vector">
<use xlink:href="#path6_fill" transform="translate(21086.6 -1326.96)" fill="#FFFFFF"/>
</g>
<g id="Vector">
<use xlink:href="#path7_fill" transform="translate(21101.1 -1326.96)" fill="#FFFFFF"/>
</g>
<g id="Vector">
<use xlink:href="#path8_fill" transform="translate(21110.7 -1326.96)" fill="#FFFFFF"/>
</g>
<g id="Vector">
<use xlink:href="#path9_fill" transform="translate(21121.9 -1326.96)" fill="#FFFFFF"/>
</g>
<g id="Vector">
<use xlink:href="#path10_fill" transform="translate(21133.8 -1326.96)" fill="#FFFFFF"/>
</g>
<g id="Vector">
<use xlink:href="#path11_fill" transform="translate(21145.2 -1326.96)" fill="#FFFFFF"/>
</g>
<g id="Vector">
<use xlink:href="#path12_fill" transform="translate(21156.5 -1326.58)" fill="#FFFFFF"/>
</g>
<g id="Vector">
<use xlink:href="#path13_fill" transform="translate(21116.2 -1402.81)" fill="#FFFFFF"/>
</g>
<g id="Vector">
<use xlink:href="#path14_fill" transform="translate(21086.7 -1433.18)" fill="#FFFFFF"/>
</g>
<g id="Vector">
<use xlink:href="#path15_fill" transform="translate(21102.3 -1416.56)" fill="#FFFFFF"/>
</g>
<g id="Vector">
<use xlink:href="#path16_fill" transform="translate(21109.3 -1409.88)" fill="#FFFFFF"/>
</g>
</g>
<g id="Vector">
<use xlink:href="#path17_fill" transform="translate(21134.9 -1347.79)" fill="#FFFFFF"/>
</g>
</g>
</g>
</g>
<defs>
<path id="path0_fill" d="M 2.48354 16.2386L 2.48354 9.55209L 5.15813 9.55209L 5.15813 16.2386L 7.64167 16.2386L 7.64167 2.10146C 7.64167 1.71938 7.64167 1.52833 7.45063 1.33729C 7.25959 1.14625 7.25959 0.764165 6.87751 0.573123C 6.68646 0.382081 6.49542 0.191045 6.11334 0.191045C 5.9223 2.91791e-06 5.54021 -1.45753e-06 5.34917 -1.45753e-06L 2.10146 -1.45753e-06C 1.71938 -1.45753e-06 1.52833 2.91791e-06 1.14625 0.191045C 0.955209 0.382087 0.573126 0.382085 0.382084 0.764169C 0.191042 0.955211 1.0605e-16 1.14625 1.0605e-16 1.52833C 0 1.33729 0 1.71938 0 1.91042L 0 16.0475L 2.48354 16.0475L 2.48354 16.2386ZM 2.48354 1.91042C 2.48354 1.91042 2.67459 1.91042 2.48354 1.91042L 4.96709 1.91042L 4.96709 7.45063L 2.48354 7.45063L 2.48354 1.91042Z"/>
<path id="path1_fill" d="M 6.11334 9.36105C 6.30438 9.17001 6.68647 8.97897 6.87751 8.78793C 7.06855 8.59689 7.25959 8.2148 7.45063 8.02376C 7.64167 7.64167 7.64167 7.25959 7.64167 7.06855L 7.64167 2.10146C 7.64167 1.71938 7.64167 1.52833 7.45063 1.33729C 7.25959 1.14625 7.25959 0.764165 6.87751 0.573123C 6.68647 0.382081 6.49542 0.191045 6.11334 0.191045C 5.9223 2.91791e-06 5.54021 -1.45753e-06 5.15813 -1.45753e-06L -3.64383e-07 -1.45753e-06L -3.64383e-07 16.2386L 2.48354 16.2386L 2.48354 9.74314L 5.15813 9.74314C 5.54021 9.5521 5.9223 9.55209 6.11334 9.36105ZM 5.15813 5.9223C 5.15813 6.30438 5.15813 6.68647 4.96709 6.87751C 4.77605 7.06855 4.77605 7.25959 4.58501 7.45063C 4.39396 7.64168 4.20292 7.64167 4.01188 7.64167C 3.82084 7.64167 3.6298 7.64167 3.6298 7.64167L 2.48354 7.64167L 2.48354 1.91042L 4.96709 1.91042L 4.96709 5.9223L 5.15813 5.9223Z"/>
<path id="path2_fill" d="M 7.06855 0.573126C 6.87751 0.382084 6.68646 0.19104 6.30438 0.19104C 6.11334 -1.46607e-06 5.73126 1.45753e-06 5.34917 1.45753e-06L -3.64383e-07 1.45753e-06L -3.64383e-07 16.2386L 2.48354 16.2386L 2.48354 9.74313L 5.34917 9.74313C 5.73126 9.74313 5.9223 9.74314 6.30438 9.55209C 6.49542 9.36105 6.87751 9.17001 7.06855 8.97897C 7.25959 8.78793 7.45063 8.40584 7.64168 8.2148C 7.83272 7.83272 7.83272 7.45063 7.83272 7.25959L 7.83272 2.29251C 7.83272 1.91042 7.83272 1.71938 7.64168 1.52833C 7.45063 0.955209 7.25959 0.764167 7.06855 0.573126ZM 5.15813 6.11334C 5.15813 6.49543 5.15813 6.87751 4.96709 7.06855C 4.77605 7.25959 4.77605 7.45063 4.58501 7.64168C 4.39396 7.83272 4.20292 7.83272 4.01188 7.83272C 3.82084 7.83272 3.6298 7.83272 3.6298 7.83272L 2.48354 7.83272L 2.48354 2.10146L 4.96709 2.10146L 4.96709 6.11334L 5.15813 6.11334Z"/>
<path id="path3_fill" d="M 5.9223 62.4707L 2.67458 62.4707L 2.67458 1.33729C 2.67458 0.573126 2.10146 -7.28767e-07 1.33729 -7.28767e-07C 0.573126 -7.28767e-07 -7.28767e-07 0.573126 -7.28767e-07 1.33729L -7.28767e-07 64.7632L 0.191042 64.7632L 5.9223 64.7632L 5.9223 62.4707C 5.9223 62.6617 5.9223 62.4707 5.9223 62.4707Z"/>
<path id="path4_fill" d="M 6.30438 16.0475L 6.30438 13.9461L 2.48354 13.9461L 2.48354 8.02376L 5.9223 8.02376L 5.9223 6.11334L 2.48354 6.11334L 2.48354 1.91042L 6.49542 1.91042L 6.49542 -1.45753e-06L 7.28767e-07 -1.45753e-06L 7.28767e-07 16.2386L 6.30438 16.0475C 6.30438 16.2386 6.30438 16.2386 6.30438 16.0475Z"/>
<path id="path5_fill" d="M 5.34917 15.8565C 5.73126 15.6654 6.11334 15.2833 6.49542 15.0923C 6.68646 14.7102 6.8775 14.5192 7.06855 14.1371C 7.25959 13.755 7.25959 13.3729 7.25959 13.1819L 7.25959 3.05667C 7.25959 2.67459 7.25959 2.48355 7.06855 2.10146C 6.8775 1.71938 6.68646 1.3373 6.49542 1.14625C 6.11334 0.76417 5.73126 0.573126 5.34917 0.382084C 4.77605 0.191042 4.20292 -1.45753e-06 3.62979 -1.45753e-06L 2.91507e-06 -1.45753e-06L 2.91507e-06 16.2386L 4.01188 16.2386C 4.20292 16.2386 4.77605 16.0475 5.34917 15.8565ZM 2.10146 13.9461L 2.10146 1.91042L 3.24771 1.91042C 3.62979 1.91042 3.82084 1.91042 4.01188 2.10146C 4.20292 2.29251 4.39396 2.48354 4.39396 2.86563C 4.39396 3.05667 4.39396 3.05667 4.39396 3.24771C 4.39396 3.24771 4.39396 3.43876 4.39396 3.6298C 4.39396 3.82084 4.39396 4.01188 4.39396 4.39396C 4.39396 4.77604 4.39396 5.34917 4.39396 5.9223C 4.39396 6.68647 4.39396 7.45063 4.39396 8.59688C 4.39396 9.74313 4.39396 11.0804 4.39396 12.7998C 4.39396 13.564 4.01188 13.9461 3.43876 13.9461L 2.10146 13.9461Z"/>
<path id="path6_fill" d="M 8.97897 -2.91507e-06L 7.06855 -2.91507e-06C 6.68647 -2.91507e-06 6.49542 1.45184e-06 6.30438 0.191043C 6.11334 0.382085 5.9223 0.573126 5.73126 0.764167C 5.73126 0.764167 5.54021 0.955211 5.54021 1.14625C 5.54021 1.33729 5.34917 1.52834 5.34917 1.52834C 5.34917 1.3373 5.34917 1.33729 5.15813 1.14625C 5.15813 0.955211 4.96709 0.76417 4.96709 0.573129C 4.77605 0.382087 4.77605 0.191043 4.39396 0.191043C 4.20292 1.45184e-06 4.01188 -2.91507e-06 3.6298 -2.91507e-06L 1.91042 -2.91507e-06C 1.33729 -2.91507e-06 0.955209 0.191045 0.573126 0.573129C 0.191042 1.14625 0 1.52834 0 2.10146L 0 14.9013L 2.10146 14.9013L 2.10146 2.67459C 2.10146 2.48354 2.10146 2.2925 2.2925 2.10146C 2.48354 1.91042 2.67459 1.91042 2.86563 1.91042L 3.24771 1.91042C 3.43875 1.91042 3.82084 1.91042 4.01188 2.10146C 4.20292 2.2925 4.39396 2.48354 4.39396 2.67459L 4.39396 14.9013L 6.30438 14.9013L 6.30438 2.67459C 6.30438 2.2925 6.49542 2.10146 6.68647 2.10146C 6.87751 1.91042 7.06855 1.91042 7.45063 1.91042L 7.83272 1.91042C 8.02376 1.91042 8.2148 1.91042 8.40584 2.10146C 8.59688 2.2925 8.59688 2.48354 8.59688 2.67459L 8.59688 14.9013L 10.6983 14.9013L 10.6983 2.10146C 10.6983 1.52834 10.5073 1.14625 10.1252 0.764167C 9.93418 0.191042 9.36105 -2.91507e-06 8.97897 -2.91507e-06Z"/>
<path id="path7_fill" d="M 5.73126 -2.91507e-06L -1.82192e-07 -2.91507e-06L -1.82192e-07 14.9013L 5.73126 14.9013L 5.73126 12.9908L 2.2925 12.9908L 2.2925 7.45063L 5.54021 7.45063L 5.54021 5.9223L 2.2925 5.9223L 2.2925 2.10146L 5.9223 2.10146L 5.73126 -2.91507e-06C 5.9223 -2.91507e-06 5.9223 -2.91507e-06 5.73126 -2.91507e-06Z"/>
<path id="path8_fill" d="M 7.06855 -2.91507e-06L 7.28767e-07 -2.91507e-06L 7.28767e-07 1.71938L 2.2925 1.71938L 2.2925 14.7102L 4.585 14.7102L 4.585 1.71938L 6.87751 1.71938L 7.06855 -2.91507e-06Z"/>
<path id="path9_fill" d="M 6.68647 -2.91507e-06L 4.585 -2.91507e-06L 4.585 6.11334L 2.2925 6.11334L 2.2925 -2.91507e-06L 0 -2.91507e-06L 0 14.7102L 2.2925 14.7102L 2.2925 8.40584L 4.585 8.40584L 4.585 14.9013L 6.68647 14.9013L 6.68647 -2.91507e-06C 6.87751 0.191039 6.87751 -2.91507e-06 6.68647 -2.91507e-06Z"/>
<path id="path10_fill" d="M 6.49542 0.573129C 6.30438 0.382087 6.11334 0.191043 5.9223 0.191043C 5.73125 1.45184e-06 5.34917 -2.91507e-06 5.15813 -2.91507e-06L 1.91042 -2.91507e-06C 1.71938 -2.91507e-06 1.33729 1.45184e-06 1.14625 0.191043C 0.955208 0.382085 0.764167 0.382087 0.573126 0.573129C 0.382084 0.76417 0.19104 0.955211 0.19104 1.14625C -1.46607e-06 1.33729 1.45753e-06 1.71937 1.45753e-06 1.91042L 1.45753e-06 12.9908C 1.45753e-06 13.1819 -1.46607e-06 13.564 0.19104 13.755C 0.382082 13.9461 0.382084 14.1371 0.573126 14.3281C 0.764167 14.5192 0.955208 14.7102 1.14625 14.7102C 1.33729 14.9013 1.71938 14.9013 1.91042 14.9013L 5.15813 14.9013C 5.34917 14.9013 5.73125 14.9013 5.9223 14.7102C 6.11334 14.5192 6.30438 14.5192 6.49542 14.3281C 6.68647 14.1371 6.87751 13.9461 6.87751 13.755C 7.06855 13.564 7.06855 13.1819 7.06855 12.9908L 7.06855 1.91042C 7.06855 1.71937 7.06855 1.33729 6.87751 1.14625C 6.68646 0.955211 6.68647 0.76417 6.49542 0.573129ZM 4.77605 12.9908C 4.77605 12.9908 4.77605 13.1819 4.77605 12.9908L 2.2925 12.9908L 2.2925 1.91042L 4.58501 1.91042L 4.58501 12.9908L 4.77605 12.9908Z"/>
<path id="path11_fill" d="M 6.11334 1.14625C 5.9223 0.764169 5.54021 0.573124 4.96709 0.382082C 4.585 0.19104 4.01188 -2.91507e-06 3.43875 -2.91507e-06L 1.45753e-06 -2.91507e-06L 1.45753e-06 14.9013L 3.62979 14.9013C 4.20292 14.9013 4.77605 14.7102 5.15813 14.5192C 5.54022 14.3281 5.9223 14.1371 6.11334 13.755C 6.30438 13.564 6.49542 13.1819 6.68647 12.7998C 6.68647 12.4177 6.87751 12.2267 6.87751 11.8446L 6.87751 2.67459C 6.87751 2.48354 6.87751 2.10146 6.68647 1.71938C 6.49542 1.71938 6.30438 1.33729 6.11334 1.14625ZM 4.39396 4.20292C 4.39396 4.585 4.39396 4.96709 4.39396 5.73125C 4.39396 6.49542 4.39396 7.25959 4.39396 8.2148C 4.39396 9.17001 4.39396 10.5073 4.39396 12.0356C 4.39396 12.6088 4.20292 12.9908 3.62979 12.9908L 2.48354 12.9908L 2.48354 1.91042L 3.43875 1.91042C 3.6298 1.91042 4.01188 1.91042 4.20292 2.10146C 4.39397 2.2925 4.39396 2.67459 4.39396 3.05667C 4.39396 3.24771 4.39396 3.24771 4.39396 3.24771C 4.39396 3.24771 4.39396 3.43875 4.39396 3.6298C 4.39396 3.6298 4.39396 4.01188 4.39396 4.20292Z"/>
<path id="path12_fill" d="M 6.49542 7.25959C 6.49542 7.25959 6.49543 7.25959 6.30438 7.06855C 6.11334 7.06855 6.11334 6.87751 5.9223 6.87751C 5.73126 6.87751 5.54022 6.68647 5.34917 6.49542C 5.15813 6.30438 4.96709 6.30438 4.585 6.11334C 4.01188 5.73126 3.43875 5.34917 2.67459 4.96709C 2.67459 4.96709 2.67459 4.96709 2.48355 4.77604L 2.48355 4.58501L 2.48355 1.91042L 4.39397 1.91042L 4.39397 4.01188L 6.49542 4.01188L 6.49542 1.91042C 6.49542 1.71938 6.49543 1.3373 6.30438 1.14625C 6.11334 0.955212 6.11334 0.764164 5.9223 0.573123C 5.73126 0.382081 5.54022 0.191045 5.34917 0.191045C 5.15813 2.91791e-06 4.77605 -1.45753e-06 4.585 -1.45753e-06L 2.10146 -1.45753e-06C 1.91042 -1.45753e-06 1.52833 2.91791e-06 1.33729 0.191045C 1.14625 0.382087 0.955209 0.382081 0.764167 0.573123C 0.573126 0.764164 0.382082 0.955212 0.382082 1.14625C 0.19104 1.3373 0.191043 1.71938 0.191043 1.91042L 0.191043 5.73125C 0.191043 5.9223 0.191043 5.9223 0.191043 6.11334C 0.191043 6.30438 0.382082 6.30438 0.382082 6.49542C 0.382082 6.49542 0.573126 6.68646 0.764167 6.68646C 0.955209 6.87751 1.14625 6.87751 1.33729 7.06855C 1.52833 7.25959 1.91042 7.45063 2.10146 7.64167C 2.48355 7.83271 2.67459 8.02375 3.05667 8.2148C 3.24771 8.40584 3.62979 8.59688 3.82083 8.59688C 4.01188 8.78792 4.20292 8.78792 4.39397 8.97897L 4.39397 12.7998L 2.2925 12.7998L 2.2925 9.74314L -2.91507e-06 9.74314L -2.91507e-06 12.7998C -2.91507e-06 12.9908 1.45184e-06 13.3729 0.191043 13.564C 0.382085 13.755 0.382087 13.9461 0.573128 14.1371C 0.76417 14.3281 0.955211 14.5192 1.14625 14.5192C 1.33729 14.7102 1.71937 14.7102 1.91042 14.7102L 4.77604 14.7102C 4.96709 14.7102 5.34917 14.7102 5.54021 14.5192C 5.73126 14.3281 5.9223 14.3281 6.11334 14.1371C 6.30438 13.9461 6.49542 13.755 6.49542 13.564C 6.68646 13.3729 6.68646 12.9908 6.68646 12.7998L 6.68646 7.83272C 6.68646 7.45063 6.68646 7.25959 6.49542 7.25959Z"/>
<path id="path13_fill" d="M 14.3281 45.85C 15.2833 45.659 16.2386 45.468 17.1938 45.2769L 17.1938 8.59688C 17.1938 3.82084 13.3729 -7.28767e-07 8.59688 -7.28767e-07C 3.82084 -7.28767e-07 0 3.82084 0 8.59688L 0 45.2769C 0.955209 45.468 1.91042 45.659 2.86563 45.85L 2.86563 8.59688C 2.86563 5.54021 5.34917 2.86563 8.59688 2.86563C 11.6536 2.86563 14.3281 5.34917 14.3281 8.59688L 14.3281 45.85Z"/>
<path id="path14_fill" d="M 38.3039 12.4177C 53.2052 12.4177 65.2408 24.4534 65.2408 39.3546L 65.2408 65.5274C 65.2408 65.5274 65.2408 65.5274 65.4318 65.3363C 80.3331 50.4351 80.3331 26.1727 65.4318 11.0804C 58.1722 4.01188 48.4291 0 38.3039 0C 28.1787 0 18.4355 4.01188 11.1759 11.2715C -3.72532 26.1727 -3.72532 50.435 11.1759 65.5274C 11.1759 65.5274 11.1759 65.5274 11.367 65.7184L 11.367 39.5457C 11.1759 24.4534 23.4026 12.4177 38.3039 12.4177Z"/>
<path id="path15_fill" d="M 42.4113 54.4469C 43.3665 53.8738 44.3217 53.3007 45.2769 52.5365L 45.2769 22.5429C 45.468 10.1252 35.1517 -3.64383e-07 22.734 -3.64383e-07C 10.3163 -3.64383e-07 -3.64383e-07 10.1252 -3.64383e-07 22.5429L -3.64383e-07 52.5365C 0.955209 53.3007 1.91042 53.8738 2.86563 54.4469L 2.86563 22.5429C 2.86563 11.6536 11.8446 2.67459 22.734 2.67459C 33.6234 2.67459 42.6023 11.6536 42.6023 22.5429L 42.4113 54.4469Z"/>
<path id="path16_fill" d="M 2.86563 51.1992L 2.86563 15.8565C 2.86563 8.78793 8.59688 3.05667 15.6654 3.05667C 22.734 3.05667 28.4652 8.78793 28.4652 15.8565L 28.4652 51.1992C 29.4204 50.8171 30.3757 50.4351 31.3309 50.053L 31.3309 15.6654C 31.3309 7.06855 24.2623 -3.64383e-07 15.6654 -3.64383e-07C 7.06855 -3.64383e-07 -7.28767e-07 7.06855 -7.28767e-07 15.6654L -7.28767e-07 50.053C 0.955209 50.4351 1.91042 50.8171 2.86563 51.1992Z"/>
<path id="path17_fill" d="M 2.48355 0L 0 0L 0 16.4296L 2.48355 16.4296L 2.48355 0Z"/>
</defs>
</svg>
