<svg width="10009" height="676" viewBox="0 0 10009 676" version="1.1" xmlns="http://www.w3.org/2000/svg" xmlns:xlink="http://www.w3.org/1999/xlink">
<title>Group 2</title>
<desc>Created using Figma</desc>
<g id="Canvas" transform="translate(-23808 -142)">
<g id="Group 2">
<g id="Union">
<use xlink:href="#path0_fill" transform="translate(23812.5 203.484)" fill="#F5F5F5"/>
</g>
<g id="Union">
<use xlink:href="#path1_fill" transform="translate(28582.8 142)" fill="#F5F5F5"/>
</g>
<g id="Union">
<use xlink:href="#path2_fill" transform="translate(23808 202.765)" fill="#FFFFFF"/>
</g>
</g>
</g>
<defs>
<path id="path0_fill" d="M 4456.98 0.588119C 3899.87 -3.57282 3159.89 78.5338 2718.01 150.016C 2276.13 221.499 1369.01 218.016 1114.51 194.016C 860.008 170.016 258.008 83.5163 0 167.516C 0.012249 244.016 0.0105171 381.516 0.0105171 381.516C 1028.01 381.516 4755.01 344.016 5745.51 344.016C 5745.51 233.016 5745.51 134.712 5745.51 86.5163C 5408.95 45.036 4793.71 -6.06331 4456.98 0.588119Z"/>
<path id="path1_fill" d="M 239.222 138.765C 605.003 28.3132 859.867 0.701807 969.224 0.0133147L 969.224 0.00634146C 970.372 0.00112295 971.538 -0.000891211 972.722 0.00036001C 973.906 -0.000891211 975.074 0.00112295 976.222 0.00634146L 976.222 0.0133147C 1085.58 0.701807 1299.96 28.3132 1665.74 138.765C 1833.52 189.428 2482.24 396.5 3255.74 191C 4029.24 -14.5 5018.72 213 5231.22 320.5C 5231.22 364.624 5231.22 429.5 5231.22 498C 4390.72 498 540.427 436.104 373.729 416.5C -25.7628 416.5 -156.782 258.343 239.222 138.765Z"/>
<path id="path2_fill" d="M 0.000228882 614.735C 0.000228882 614.735 0.000526428 503.735 0 347.235C 260.084 167.303 981.939 16.3133 1763 152.6C 3016 371.235 4311 152.6 4311 152.6C 4452.04 122.022 4933.3 22.4755 5305.67 3.23572C 5339.64 0.852842 5376.12 -0.151583 5414.5 0.0183697C 5452.88 -0.151583 5489.36 0.852842 5523.33 3.23572C 5895.7 22.4755 6376.96 122.022 6518 152.6C 6518 152.6 7538 327.098 8557.5 199.416C 9577 71.7351 10009 232.735 10009 232.735L 10009 614.735L 0.000228882 614.735Z"/>
</defs>
</svg>
