<svg width="10000" height="228" viewBox="0 0 10000 228" version="1.1" xmlns="http://www.w3.org/2000/svg" xmlns:xlink="http://www.w3.org/1999/xlink">
<title>Union</title>
<desc>Created using Figma</desc>
<g id="Canvas" transform="translate(-23814 -1971)">
<g id="Union">
<use xlink:href="#path0_fill" transform="translate(23814 1971)" fill="#FFFFFF"/>
</g>
</g>
<defs>
<path id="path0_fill" d="M 0 0L 0 126.847C 71.082 118.328 139.262 111.088 202 106.133L 202 106.197L 202.754 106.073C 249.949 102.357 294.055 99.9384 334 99.2462C 373.945 99.9384 418.051 102.357 465.246 106.073L 466 106.197L 466 106.133C 612.289 117.687 788.137 141.665 961.477 165.302C 1199.4 197.746 1435.68 228.763 1676 227.756C 1822.03 228.368 2051 197.145 2284.52 165.302C 2457.86 141.665 2633.71 117.687 2780 106.133L 2780 106.197L 2780.75 106.073C 2827.95 102.357 2872.06 99.9384 2912 99.2462C 2951.94 99.9384 2996.05 102.357 3043.25 106.073L 3044 106.197L 3044 106.133C 3190.29 117.687 3366.14 141.665 3539.48 165.302C 3773 197.145 4001.97 228.368 4148 227.756C 4294.03 228.368 4523 197.145 4756.52 165.302C 4929.86 141.665 5105.71 117.687 5252 106.133L 5252 106.197L 5252.75 106.073C 5299.95 102.357 5344.06 99.9384 5384 99.2462C 5423.94 99.9384 5468.05 102.357 5515.25 106.073L 5516 106.197L 5516 106.133C 5662.29 117.687 5838.14 141.665 6011.48 165.302C 6200.73 191.108 6386.99 216.507 6528.54 224.884C 6551.04 227.108 6577.04 227.98 6606 227.721C 6634.96 227.98 6660.96 227.108 6683.46 224.884C 6825.01 216.507 7011.27 191.108 7200.52 165.302C 7373.86 141.665 7549.71 117.687 7696 106.133L 7696 106.197L 7696.75 106.073C 7743.95 102.357 7788.06 99.9384 7828 99.2462C 7867.94 99.9384 7912.05 102.357 7959.25 106.073L 7960 106.197L 7960 106.133C 8106.29 117.687 8282.14 141.665 8455.48 165.302C 8698.27 198.409 8936.15 230.847 9081 227.531C 9225.86 230.847 9463.73 198.409 9706.52 165.302C 9805.52 151.802 9905.34 138.191 10000 126.847L 10000 0L 0 0Z"/>
</defs>
</svg>
