<svg width="180" height="85" viewBox="0 0 180 85" xmlns="http://www.w3.org/2000/svg" xmlns:xlink="http://www.w3.org/1999/xlink">
    <title>
        Group
    </title>
    <desc>
        Created using Figma
    </desc>
    <use xlink:href="#a" transform="translate(92.7 17.56)" fill="#FFF"/>
    <use xlink:href="#b" transform="translate(107.6 17.56)" fill="#FFF"/>
    <use xlink:href="#c" transform="translate(122.3 17.56)" fill="#FFF"/>
    <use xlink:href="#d" transform="translate(158.7 17.72)" fill="#FFF"/>
    <use xlink:href="#e" transform="translate(171.3 17.56)" fill="#FFF"/>
    <use xlink:href="#f" transform="translate(92.7 48.56)" fill="#FFF"/>
    <use xlink:href="#g" transform="translate(110.3 48.56)" fill="#FFF"/>
    <use xlink:href="#h" transform="translate(120.5 48.56)" fill="#FFF"/>
    <use xlink:href="#i" transform="translate(132.8 48.56)" fill="#FFF"/>
    <use xlink:href="#j" transform="translate(146.1 48.56)" fill="#FFF"/>
    <use xlink:href="#k" transform="translate(159.5 48.64)" fill="#FFF"/>
    <use xlink:href="#l" transform="translate(172.3 48.56)" fill="#FFF"/>
    <use xlink:href="#m" transform="translate(148.5 17.56)" fill="#FFF"/>
    <use xlink:href="#n" transform="translate(135.5 17.56)" fill="#FFF"/>
    <g>
        <use xlink:href="#o" transform="translate(34 33.06)" fill="#FFF"/>
        <use xlink:href="#p" transform="translate(41.1 40.93)" fill="#D50000"/>
        <use xlink:href="#q" fill="#FFF"/>
        <use xlink:href="#r" transform="translate(18.4 17.33)" fill="#FFF"/>
        <use xlink:href="#s" transform="translate(26.1 25.19)" fill="#FFF"/>
    </g>
    <defs>
        <path id="a" d="M2.922 18.566c.08 0 .08 0 .08-.08v-7.473h2.921v7.474c0 .079 0 .079.08.079h2.685c.079 0 .079 0 .079-.08V2.518c0-.314-.08-.629-.237-.944a2.825 2.825 0 0 0-.553-.786 2.837 2.837 0 0 0-.79-.551A2.11 2.11 0 0 0 6.24 0H2.45c-.317 0-.711.079-.948.236a2.837 2.837 0 0 0-.79.55 2.825 2.825 0 0 0-.553.787C0 1.888 0 2.203 0 2.517v15.97c0 .079 0 .079.079.079h2.843zm.08-16.049c0-.078 0-.078.078-.078h2.764c.08 0 .08 0 .08.078v6.136H3V2.517z"/>
        <path id="b" d="M7.108 10.856c.316-.157.632-.393.869-.63.237-.235.474-.55.553-.943.158-.394.237-.787.237-1.18V2.517c0-.314-.08-.629-.237-.944a2.825 2.825 0 0 0-.553-.786 2.837 2.837 0 0 0-.79-.551A2.193 2.193 0 0 0 6.16 0H.08C0 0 0 0 0 .079v18.33c0 .078 0 .078.079.078h2.685c.08 0 .08 0 .08-.079v-7.316c0-.079 0-.079.078-.079h3.08c.474.08.79 0 1.106-.157zM6.002 6.923c0 .393-.079.786-.158 1.022-.158.236-.237.472-.473.63-.158.157-.395.236-.553.314-.158.08-.316.08-.474.08H3c-.079 0-.079 0-.079-.08V2.44c0-.079 0-.079.08-.079h2.921c.08 0 .08 0 .08.079v4.484z"/>
        <path id="c" d="M7.977.787a2.837 2.837 0 0 0-.79-.551A2.193 2.193 0 0 0 6.16 0H.08C0 0 0 0 0 .079v18.33c0 .078 0 .078.079.078h2.685c.08 0 .08 0 .08-.079v-7.316c0-.079 0-.079.078-.079h3.08c.395 0 .711-.078 1.027-.236.316-.157.632-.393.869-.629s.474-.55.553-.944c.158-.393.237-.787.237-1.18V2.44c0-.315-.08-.63-.237-.944-.08-.236-.316-.551-.474-.708zM5.923 6.923c0 .393-.079.786-.158 1.022-.157.236-.236.472-.473.63-.158.157-.395.236-.553.314-.158.08-.316.08-.474.08H2.922c-.079 0-.079 0-.079-.08V2.44c0-.079 0-.079.08-.079h2.921c.08 0 .08 0 .08.079v4.484z"/>
        <path id="d" d="M7.266 18.33v-2.282c0-.078 0-.078-.079-.078H2.922V9.125h3.95c.078 0 .078 0 .078-.078V7.159c0-.079 0-.079-.079-.079H2.922V2.281h4.423c.079 0 .079 0 .079-.078V.079c0-.079 0-.079-.079-.079H.079C0 0 0 0 0 .079v18.33c0 .078 0 .078.079.078h7.03c.157-.079.157-.157.157-.157z"/>
        <path id="e" d="M6.555 18.172c.474-.236.948-.55 1.185-.865.316-.315.474-.708.632-1.18.079-.393.158-.787.158-1.18V3.619c0-.315-.08-.708-.237-1.102a4.691 4.691 0 0 0-.711-1.18C7.266.944 6.792.63 6.239.393A4.894 4.894 0 0 0 4.265 0H.079C0 0 0 0 0 .079v18.33c0 .078 0 .078.079.078h4.423c.948.079 1.58-.079 2.053-.315zM3.08 16.127c-.079 0-.079 0-.079-.079V2.438c0-.078 0-.078.08-.078h1.184c.316 0 .632.079.948.315.316.157.394.472.394.944v11.25c0 .786-.315 1.18-1.026 1.18h-1.5v.078z"/>
        <path id="f" d="M10.03 0H7.977c-.316 0-.632.079-.79.236-.237.157-.395.315-.553.472-.158.157-.237.393-.316.55-.079.237-.079.394-.158.551 0-.157-.079-.314-.158-.472-.079-.157-.158-.393-.316-.55C5.53.629 5.371.472 5.134.315 4.897.157 4.66.079 4.264.079H2.212c-.631 0-1.105.236-1.58.629C.238 1.18 0 1.652 0 2.281v14.24c0 .078 0 .078.079.078h2.37c.078 0 .078 0 .078-.079V2.99c0-.237.08-.394.158-.551.158-.158.316-.236.632-.236h.474c.316 0 .553.078.79.157.237.157.316.315.316.708v13.53c0 .08 0 .08.079.08h2.053c.08 0 .08 0 .08-.08V2.99c0-.314.078-.55.315-.708.237-.078.474-.157.79-.157h.474c.316 0 .474.079.632.236.157.157.157.393.157.55v13.532c0 .078 0 .078.08.078h2.369c.079 0 .079 0 .079-.078V2.282c0-.63-.237-1.102-.632-1.574C11.136.236 10.583 0 10.03 0z"/>
        <path id="g" d="M6.555 0H.08C0 0 0 0 0 .079V16.52c0 .079 0 .079.079.079h6.318c.08 0 .08 0 .08-.079v-2.045c0-.079 0-.079-.08-.079h-3.79V8.26H6.16c.08 0 .08 0 .08-.079V6.53c0-.078 0-.078-.08-.078H2.606V2.124h4.028c.08 0 .08 0 .08-.079V.08C6.633 0 6.633 0 6.554 0z"/>
        <path id="h" d="M7.898 0H.079C0 0 0 0 0 .079v1.966c0 .079 0 .079.079.079h2.606v14.475c0 .078 0 .078.08.078h2.448c.079 0 .079 0 .079-.078V2.124h2.527c.079 0 .079 0 .079-.079V.08c.079-.079 0-.079 0-.079z"/>
        <path id="i" d="M7.819 0H5.37c-.08 0-.08 0-.08.079v6.844c0 .078 0 .078-.078.078H2.685c-.079 0-.079 0-.079-.078V.079c0-.079 0-.079-.079-.079H.08C0 0 0 0 0 .079v16.363c0 .078 0 .078.079.078h2.448c.08 0 .08 0 .08-.078V9.204l.078-.079h2.528c.079 0 .079 0 .079.08v7.158c0 .079 0 .079.079.079h2.448c.079 0 .079 0 .079-.08V.08L7.818 0z"/>
        <path id="j" d="M7.345.63l-.71-.473C6.317.08 6.08 0 5.764 0H2.211a2.85 2.85 0 0 0-.868.157L.632.63l-.474.708C0 1.652 0 1.888 0 2.203v12.193c0 .315.079.63.158.865.158.237.237.473.474.709s.395.314.71.472c.238.078.553.157.87.157h3.553c.316 0 .553-.079.87-.157.236-.158.552-.315.71-.473.237-.157.395-.393.474-.707.158-.237.158-.551.158-.866V2.203c0-.315-.08-.551-.158-.866-.08-.236-.237-.472-.474-.708zM5.45 14.395c0 .079 0 .079-.08.079H2.686c-.079 0-.079-.079-.079-.079V2.203c0-.079 0-.079.08-.079H5.37c.079 0 .079 0 .079.079v12.193z"/>
        <path id="k" d="M6.792 1.101C6.476.787 6.082.472 5.608.315 5.134.079 4.502 0 3.79 0H.079C0 0 0 0 0 .079V16.52c0 .079 0 .079.079.079h4.028c.71 0 1.264-.079 1.737-.315.474-.236.79-.472 1.106-.786.237-.315.474-.63.553-1.023.079-.394.158-.708.158-1.023V3.225c0-.314-.079-.629-.158-1.022-.079-.394-.395-.787-.71-1.102zM5.055 4.563v8.653c0 .708-.316 1.101-.948 1.101H2.764c-.079 0-.079 0-.079-.078V2.124c0-.079 0-.079.08-.079H3.87c.316 0 .553.079.79.236.237.158.395.472.395.866v1.416z"/>
        <path id="l" d="M7.503 8.339s-.079-.079-.237-.158c-.158-.078-.316-.157-.474-.314-.158-.158-.474-.236-.71-.394-.238-.157-.553-.314-.79-.472-.632-.393-1.343-.786-2.133-1.258l-.079-.079c-.079 0-.079-.079-.158-.157 0-.079-.079-.079-.079-.236V2.202c0-.078 0-.078.08-.078h2.053c.079 0 .079 0 .079.079v2.281h2.448V2.203c0-.315-.079-.551-.158-.866-.079-.236-.237-.472-.474-.708-.158-.157-.474-.314-.71-.472A2.85 2.85 0 0 0 5.29 0H2.449a2.85 2.85 0 0 0-.868.157L.869.63c-.158.236-.316.394-.474.708-.158.236-.158.551-.158.866v4.326c0 .158 0 .315.079.472a.615.615 0 0 0 .316.315s.158.079.316.236c.158.079.474.236.71.472.316.157.632.393.948.55.316.237.632.394.948.63.316.157.632.393.869.472.237.157.395.236.553.315h.079v4.405c0 .079 0 .079-.08.079H2.528c-.079 0-.079 0-.079-.079v-3.461H0v3.461c0 .315.079.55.158.865.158.237.237.473.474.709.158.157.395.314.71.472.238.078.553.157.87.157H5.37c.315 0 .552-.079.868-.157.237-.158.553-.315.711-.473.158-.157.395-.393.474-.707.158-.237.158-.551.158-.866V8.811c.158-.236.079-.394-.079-.472z"/>
        <path id="m" d="M2.843 0H0v18.487h2.843V0z"/>
        <path id="n" d="M6.792 16.048H3.238c-.079 0-.079 0-.079-.078V0H0v18.408c0 .079 0 .079.079.079h6.713s.08 0 .08-.079v-2.203c.078-.078 0-.157-.08-.157z"/>
        <path id="o" d="M40.358 0H9.478C4.264 0 0 4.248 0 9.44c0 5.192 4.265 9.44 9.477 9.44h40.754c.236-1.022.473-2.045.631-3.146H9.478c-3.476 0-6.319-2.833-6.319-6.294 0-3.461 2.843-6.293 6.318-6.293h41.307c-.158-1.023-.316-2.124-.553-3.147h-9.873z"/>
        <path id="p" d="M33.25 0H1.58C.71 0 0 .708 0 1.573c0 .866.71 1.574 1.58 1.574h137.344V1.573c0-.55 0-1.022-.079-1.573H33.25z"/>
        <path id="q" d="M68.238 72.394c-.08.078-.158.157-.237.157v-.157H43.833c-16.585 0-30.012-13.374-30.012-29.894 0-16.52 13.427-29.894 30.012-29.894H68.08v-.236l.237.236h4.66l-.159-.157c-16.664-16.599-43.675-16.599-60.34 0C4.424 20.473 0 31.172 0 42.5s4.423 22.027 12.479 30.05c16.664 16.6 43.675 16.6 60.34 0l.078-.078h-4.66v-.078z"/>
        <path id="r" d="M48.02 0H25.272C11.373 0 0 11.328 0 25.174c0 13.845 11.373 25.173 25.273 25.173h33.329c.79-1.023 1.5-2.124 2.133-3.147H25.274c-12.164 0-22.115-9.912-22.115-22.027 0-12.114 9.951-22.026 22.114-22.026h31.67v.078h3.792A27.579 27.579 0 0 0 58.602.08L48.02 0z"/>
        <path id="s" d="M40.358 0H17.375C7.82 0 0 7.788 0 17.307c0 9.519 7.819 17.307 17.375 17.307h38.147a37.393 37.393 0 0 0 1.264-3.147h-39.41c-7.82 0-14.217-6.372-14.217-14.16s6.397-14.16 14.216-14.16H53.39v.078h3.396c-.395-1.022-.79-2.124-1.264-3.146L40.358 0z"/>
    </defs>
</svg>
