<svg width="180" height="85" viewBox="0 0 180 85" version="1.1" xmlns="http://www.w3.org/2000/svg" xmlns:xlink="http://www.w3.org/1999/xlink">
<title>Group</title>
<desc>Created using Figma</desc>
<g id="Canvas" transform="translate(-13711 2181)">
<g id="Group">
<g id="Group">
<g id="Vector">
<use xlink:href="#path0_fill" transform="translate(13803.7 -2163.44)" fill="#FFFFFF"/>
</g>
<g id="Vector">
<use xlink:href="#path1_fill" transform="translate(13818.6 -2163.44)" fill="#FFFFFF"/>
</g>
<g id="Vector">
<use xlink:href="#path2_fill" transform="translate(13833.3 -2163.44)" fill="#FFFFFF"/>
</g>
<g id="Vector">
<use xlink:href="#path3_fill" transform="translate(13869.7 -2163.28)" fill="#FFFFFF"/>
</g>
<g id="Vector">
<use xlink:href="#path4_fill" transform="translate(13882.3 -2163.44)" fill="#FFFFFF"/>
</g>
<g id="Vector">
<use xlink:href="#path5_fill" transform="translate(13803.7 -2132.44)" fill="#FFFFFF"/>
</g>
<g id="Vector">
<use xlink:href="#path6_fill" transform="translate(13821.3 -2132.44)" fill="#FFFFFF"/>
</g>
<g id="Vector">
<use xlink:href="#path7_fill" transform="translate(13831.5 -2132.44)" fill="#FFFFFF"/>
</g>
<g id="Vector">
<use xlink:href="#path8_fill" transform="translate(13843.8 -2132.44)" fill="#FFFFFF"/>
</g>
<g id="Vector">
<use xlink:href="#path9_fill" transform="translate(13857.1 -2132.44)" fill="#FFFFFF"/>
</g>
<g id="Vector">
<use xlink:href="#path10_fill" transform="translate(13870.5 -2132.36)" fill="#FFFFFF"/>
</g>
<g id="Vector">
<use xlink:href="#path11_fill" transform="translate(13883.3 -2132.44)" fill="#FFFFFF"/>
</g>
<g id="Vector">
<use xlink:href="#path12_fill" transform="translate(13859.5 -2163.44)" fill="#FFFFFF"/>
</g>
<g id="Vector">
<use xlink:href="#path13_fill" transform="translate(13846.5 -2163.44)" fill="#FFFFFF"/>
</g>
</g>
<g id="Group">
<g id="Vector">
<use xlink:href="#path14_fill" transform="translate(13745 -2147.94)" fill="#FFFFFF"/>
</g>
<g id="Vector">
<use xlink:href="#path15_fill" transform="translate(13752.1 -2140.07)" fill="#D50000"/>
</g>
<g id="Vector">
<use xlink:href="#path16_fill" transform="translate(13711 -2181)" fill="#FFFFFF"/>
</g>
<g id="Vector">
<use xlink:href="#path17_fill" transform="translate(13729.4 -2163.67)" fill="#FFFFFF"/>
</g>
<g id="Vector">
<use xlink:href="#path18_fill" transform="translate(13737.1 -2155.81)" fill="#FFFFFF"/>
</g>
</g>
</g>
</g>
<defs>
<path id="path0_fill" d="M 2.92222 18.5655C 3.0012 18.5655 3.0012 18.5655 3.0012 18.4868L 3.0012 11.0134L 5.92342 11.0134L 5.92342 18.4868C 5.92342 18.5655 5.92342 18.5655 6.0024 18.5655L 8.68767 18.5655C 8.76665 18.5655 8.76666 18.5655 8.76666 18.4868L 8.76666 2.51735C 8.76666 2.20268 8.68768 1.88801 8.52972 1.57335C 8.37176 1.25868 8.2138 1.02267 7.97687 0.786672C 7.73993 0.55067 7.50299 0.393337 7.18708 0.236002C 6.87116 0.0786676 6.55525 -6.00184e-07 6.23933 -6.00184e-07L 2.44835 -6.00184e-07C 2.13243 -6.00184e-07 1.73754 0.0786676 1.5006 0.236002C 1.18469 0.393337 0.947749 0.55067 0.710812 0.786672C 0.473876 1.02267 0.315914 1.25868 0.157957 1.57335C -1.21218e-06 1.88801 1.20512e-06 2.20268 1.20512e-06 2.51735L 1.20512e-06 18.4868C 1.20512e-06 18.5655 0 18.5655 0.0789789 18.5655L 2.92222 18.5655ZM 3.0012 2.51735C 3.0012 2.43869 3.0012 2.43869 3.08018 2.43869L 5.84444 2.43869C 5.92342 2.43869 5.92342 2.43869 5.92342 2.51735L 5.92342 8.6534L 3.0012 8.6534L 3.0012 2.51735Z"/>
<path id="path1_fill" d="M 7.1081 10.8561C 7.42401 10.6987 7.73993 10.4627 7.97687 10.2267C 8.21381 9.99074 8.45074 9.67607 8.52972 9.28274C 8.68768 8.8894 8.76666 8.49607 8.76666 8.10273L 8.76666 2.51735C 8.76666 2.20268 8.68768 1.88801 8.52972 1.57335C 8.37176 1.25868 8.21381 1.02267 7.97687 0.786672C 7.73993 0.55067 7.503 0.393337 7.18708 0.236002C 6.87117 0.0786676 6.55525 -6.00184e-07 6.16035 -6.00184e-07L 0.0789813 -6.00184e-07C 2.40671e-06 -6.00184e-07 -2.41024e-06 -2.9892e-07 -2.41024e-06 0.078667L -2.41024e-06 18.4081C -2.41024e-06 18.4868 2.40671e-06 18.4868 0.0789813 18.4868L 2.76426 18.4868C 2.84324 18.4868 2.84324 18.4868 2.84324 18.4081L 2.84324 11.0921C 2.84324 11.0134 2.84324 11.0134 2.92221 11.0134L 6.0024 11.0134C 6.47627 11.0921 6.79218 11.0134 7.1081 10.8561ZM 6.0024 6.92272C 6.0024 7.31606 5.92342 7.7094 5.84444 7.9454C 5.68648 8.1814 5.6075 8.4174 5.37056 8.57473C 5.21261 8.73207 4.97567 8.81073 4.81771 8.8894C 4.65976 8.96807 4.50179 8.96807 4.34384 8.96807L 3.0012 8.96807C 2.92222 8.96807 2.92221 8.96807 2.92221 8.8894L 2.92221 2.43869C 2.92221 2.36002 2.92222 2.36002 3.0012 2.36002L 5.92341 2.36002C 6.00239 2.36002 6.0024 2.36002 6.0024 2.43869L 6.0024 6.92272Z"/>
<path id="path2_fill" d="M 7.97687 0.786672C 7.73993 0.55067 7.50299 0.393337 7.18708 0.236002C 6.87116 0.0786676 6.55524 -6.00184e-07 6.16035 -6.00184e-07L 0.0789789 -6.00184e-07C 0 -6.00184e-07 -4.82049e-06 -2.9892e-07 -4.82049e-06 0.078667L -4.82049e-06 18.4081C -4.82049e-06 18.4868 0 18.4868 0.0789789 18.4868L 2.76426 18.4868C 2.84324 18.4868 2.84324 18.4868 2.84324 18.4081L 2.84324 11.0921C 2.84324 11.0134 2.84324 11.0134 2.92222 11.0134L 6.0024 11.0134C 6.39729 11.0134 6.71321 10.9348 7.02912 10.7774C 7.34504 10.6201 7.66095 10.3841 7.89788 10.1481C 8.13482 9.91208 8.37177 9.59741 8.45075 9.20407C 8.6087 8.81074 8.68767 8.4174 8.68767 8.02406L 8.68767 2.43869C 8.68767 2.12402 8.6087 1.80935 8.45075 1.49468C 8.37177 1.25868 8.13483 0.944007 7.97687 0.786672ZM 5.92341 6.92272C 5.92341 7.31606 5.84444 7.7094 5.76546 7.9454C 5.6075 8.1814 5.52853 8.4174 5.29159 8.57473C 5.13363 8.73207 4.89669 8.81073 4.73873 8.8894C 4.58077 8.96807 4.42282 8.96807 4.26486 8.96807L 2.92222 8.96807C 2.84324 8.96807 2.84324 8.96807 2.84324 8.8894L 2.84324 2.43869C 2.84324 2.36002 2.84324 2.36002 2.92222 2.36002L 5.84444 2.36002C 5.92342 2.36002 5.92341 2.36002 5.92341 2.43869L 5.92341 6.92272Z"/>
<path id="path3_fill" d="M 7.26606 18.3295L 7.26606 16.0481C 7.26606 15.9695 7.26606 15.9695 7.18708 15.9695L 2.92222 15.9695L 2.92222 9.1254L 6.87117 9.1254C 6.95015 9.1254 6.95014 9.12541 6.95014 9.04674L 6.95014 7.15872C 6.95014 7.08006 6.95015 7.08006 6.87117 7.08006L 2.92222 7.08006L 2.92222 2.28135L 7.34503 2.28135C 7.42401 2.28135 7.42402 2.28135 7.42402 2.20268L 7.42402 0.0786676C 7.42402 2.9892e-07 7.42401 8.38447e-15 7.34503 8.38447e-15L 0.0789789 8.38447e-15C 0 8.38447e-15 -4.82049e-06 2.9892e-07 -4.82049e-06 0.0786676L -4.82049e-06 18.4081C -4.82049e-06 18.4868 0 18.4868 0.0789789 18.4868L 7.1081 18.4868C 7.26605 18.4081 7.26606 18.3295 7.26606 18.3295Z"/>
<path id="path4_fill" d="M 6.55525 18.1721C 7.02912 17.9361 7.50299 17.6215 7.73993 17.3068C 8.05584 16.9921 8.21381 16.5988 8.37176 16.1268C 8.45074 15.7335 8.52972 15.3401 8.52972 14.9468L 8.52972 3.61869C 8.52972 3.30403 8.45074 2.91069 8.29278 2.51735C 8.13482 2.12402 7.89789 1.73068 7.58197 1.33734C 7.26606 0.944007 6.79219 0.629338 6.23933 0.393336C 5.68648 0.157334 5.05465 -6.00184e-07 4.26486 -6.00184e-07L 0.0789789 -6.00184e-07C 0 -6.00184e-07 -4.82049e-06 -2.9892e-07 -4.82049e-06 0.078667L -4.82049e-06 18.4081C -4.82049e-06 18.4868 0 18.4868 0.0789789 18.4868L 4.5018 18.4868C 5.44955 18.5655 6.08137 18.4081 6.55525 18.1721ZM 3.08018 16.1268C 3.0012 16.1268 3.0012 16.1268 3.0012 16.0481L 3.0012 2.43869C 3.0012 2.36002 3.0012 2.36002 3.08018 2.36002L 4.26486 2.36002C 4.58078 2.36002 4.89669 2.43869 5.21261 2.67469C 5.52852 2.83202 5.6075 3.14669 5.6075 3.61869C 5.6075 3.77603 5.6075 3.8547 5.6075 3.93336C 5.6075 4.01203 5.6075 4.16937 5.6075 4.3267C 5.6075 4.48403 5.6075 4.7987 5.6075 5.19204C 5.6075 5.58538 5.6075 6.21472 5.6075 7.00139C 5.6075 7.78806 5.6075 8.81073 5.6075 10.0694C 5.6075 11.3281 5.6075 12.9801 5.6075 14.8681C 5.6075 15.6548 5.29158 16.0481 4.58077 16.0481L 3.08018 16.0481L 3.08018 16.1268Z"/>
<path id="path5_fill" d="M 10.0303 6.00184e-07L 7.97687 6.00184e-07C 7.66095 6.00184e-07 7.34504 0.0786673 7.18708 0.236002C 6.95014 0.393336 6.79219 0.55067 6.63423 0.708004C 6.47627 0.865339 6.39729 1.10134 6.31831 1.25868C 6.23933 1.49468 6.23933 1.65201 6.16035 1.80935C 6.16035 1.65201 6.08137 1.49468 6.0024 1.33735C 5.92342 1.18001 5.84444 0.944008 5.68648 0.786673C 5.52852 0.629339 5.37057 0.472003 5.13363 0.314668C 4.89669 0.157333 4.65976 0.0786667 4.26486 0.0786667L 2.21141 0.0786667C 1.57958 0.0786667 1.1057 0.314668 0.631829 0.708004C 0.236934 1.18001 1.20512e-06 1.65201 1.20512e-06 2.28135L 1.20512e-06 16.5201C 1.20512e-06 16.5988 0 16.5988 0.0789789 16.5988L 2.44835 16.5988C 2.52732 16.5988 2.52732 16.5988 2.52732 16.5201L 2.52732 2.98936C 2.52732 2.75336 2.60631 2.59602 2.68528 2.43869C 2.84324 2.28135 3.0012 2.20268 3.31711 2.20268L 3.79098 2.20268C 4.1069 2.20268 4.34384 2.28135 4.58077 2.36002C 4.81771 2.51735 4.89669 2.67469 4.89669 3.06802L 4.89669 16.5988C 4.89669 16.6775 4.89669 16.6775 4.97567 16.6775L 7.02912 16.6775C 7.1081 16.6775 7.1081 16.6775 7.1081 16.5988L 7.1081 2.98936C 7.1081 2.67469 7.18708 2.43868 7.42402 2.28135C 7.66095 2.20268 7.89789 2.12402 8.21381 2.12402L 8.68767 2.12402C 9.00359 2.12402 9.16155 2.20268 9.31951 2.36002C 9.47746 2.51735 9.47746 2.75336 9.47746 2.91069L 9.47746 16.4415C 9.47746 16.5201 9.47747 16.5201 9.55645 16.5201L 11.9258 16.5201C 12.0048 16.5201 12.0048 16.5201 12.0048 16.4415L 12.0048 2.28135C 12.0048 1.65201 11.7679 1.18001 11.373 0.708004C 11.136 0.236001 10.5832 6.00184e-07 10.0303 6.00184e-07Z"/>
<path id="path6_fill" d="M 6.55525 6.00184e-07L 0.0789813 6.00184e-07C 2.40671e-06 6.00184e-07 -2.41024e-06 -6.037e-07 -2.41024e-06 0.0786667L -2.41024e-06 16.5201C -2.41024e-06 16.5988 2.40671e-06 16.5988 0.0789813 16.5988L 6.39729 16.5988C 6.47627 16.5988 6.47626 16.5988 6.47626 16.5201L 6.47626 14.4748C 6.47626 14.3961 6.47627 14.3961 6.39729 14.3961L 2.6063 14.3961L 2.6063 8.26006L 6.16035 8.26006C 6.23933 8.26006 6.23934 8.26006 6.23934 8.1814L 6.23934 6.52938C 6.23934 6.45072 6.23933 6.45072 6.16035 6.45072L 2.6063 6.45072L 2.6063 2.12402L 6.63423 2.12402C 6.71321 2.12402 6.7132 2.12402 6.7132 2.04535L 6.7132 0.0786667C 6.63422 -6.037e-07 6.63423 6.00184e-07 6.55525 6.00184e-07Z"/>
<path id="path7_fill" d="M 7.89789 6.00184e-07L 0.0789765 6.00184e-07C -2.4126e-06 6.00184e-07 4.82049e-06 -6.037e-07 4.82049e-06 0.0786667L 4.82049e-06 2.04535C 4.82049e-06 2.12402 -2.4126e-06 2.12402 0.0789765 2.12402L 2.68528 2.12402L 2.68528 16.5988C 2.68528 16.6775 2.68529 16.6775 2.76427 16.6775L 5.2126 16.6775C 5.29158 16.6775 5.29159 16.6775 5.29159 16.5988L 5.29159 2.12402L 7.81891 2.12402C 7.89789 2.12402 7.89789 2.12402 7.89789 2.04535L 7.89789 0.0786667C 7.97687 -6.037e-07 7.89789 6.00184e-07 7.89789 6.00184e-07Z"/>
<path id="path8_fill" d="M 7.81891 6.00184e-07L 5.37056 6.00184e-07C 5.29159 6.00184e-07 5.29158 -6.037e-07 5.29158 0.0786667L 5.29158 6.92272C 5.29158 7.00139 5.29159 7.00139 5.21261 7.00139L 2.68529 7.00139C 2.60631 7.00139 2.6063 7.00139 2.6063 6.92272L 2.6063 0.0786667C 2.6063 -6.037e-07 2.6063 6.00184e-07 2.52732 6.00184e-07L 0.0789813 6.00184e-07C 2.40671e-06 6.00184e-07 -2.41024e-06 -6.037e-07 -2.41024e-06 0.0786667L -2.41024e-06 16.4415C -2.41024e-06 16.5201 2.40671e-06 16.5201 0.0789813 16.5201L 2.52732 16.5201C 2.6063 16.5201 2.6063 16.5201 2.6063 16.4415L 2.6063 9.20407C 2.68528 9.12541 2.68529 9.12541 2.68529 9.12541L 5.21261 9.12541C 5.29159 9.12541 5.29158 9.12541 5.29158 9.20407L 5.29158 16.3628C 5.29158 16.4415 5.29159 16.4415 5.37056 16.4415L 7.81891 16.4415C 7.89789 16.4415 7.89789 16.4415 7.89789 16.3628L 7.89789 0.0786667L 7.81891 6.00184e-07Z"/>
<path id="path9_fill" d="M 7.34504 0.629338C 7.1081 0.472004 6.87116 0.31467 6.63422 0.157336C 6.31831 0.0786685 6.08138 6.00184e-07 5.76546 6.00184e-07L 2.21141 6.00184e-07C 1.8955 6.00184e-07 1.57958 0.0786685 1.34264 0.157336C 1.1057 0.31467 0.86877 0.472004 0.631833 0.629338C 0.473876 0.86534 0.315913 1.10134 0.157955 1.33735C -2.4126e-06 1.65201 -2.24471e-14 1.88801 -2.24471e-14 2.20268L -2.24471e-14 14.3961C -2.24471e-14 14.7108 0.0789765 15.0254 0.157955 15.2615C 0.315913 15.4975 0.394897 15.7335 0.631833 15.9695C 0.86877 16.2055 1.02672 16.2841 1.34264 16.4415C 1.57958 16.5201 1.8955 16.5988 2.21141 16.5988L 5.76546 16.5988C 6.08138 16.5988 6.31831 16.5201 6.63422 16.4415C 6.87116 16.2841 7.18708 16.1268 7.34504 15.9695C 7.58198 15.8121 7.73993 15.5761 7.8189 15.2615C 7.97686 15.0254 7.97687 14.7108 7.97687 14.3961L 7.97687 2.20268C 7.97687 1.88801 7.89788 1.65201 7.8189 1.33735C 7.73993 1.10134 7.58198 0.86534 7.34504 0.629338ZM 5.44954 14.3961C 5.44954 14.4748 5.44955 14.4748 5.37057 14.4748L 2.68528 14.4748C 2.6063 14.4748 2.60631 14.3961 2.60631 14.3961L 2.60631 2.20268C 2.60631 2.12402 2.6063 2.12402 2.68528 2.12402L 5.37057 2.12402C 5.44955 2.12402 5.44954 2.12402 5.44954 2.20268L 5.44954 14.3961Z"/>
<path id="path10_fill" d="M 6.79219 1.10134C 6.47627 0.786673 6.08138 0.472004 5.60751 0.31467C 5.13363 0.0786679 4.5018 -6.00184e-07 3.79099 -6.00184e-07L 0.0789837 -6.00184e-07C 4.81931e-06 -6.00184e-07 0 1.20154e-06 0 0.0786685L 0 16.5201C 0 16.5988 4.81931e-06 16.5988 0.0789837 16.5988L 4.1069 16.5988C 4.81771 16.5988 5.37056 16.5201 5.84443 16.2841C 6.31831 16.0481 6.63423 15.8121 6.95014 15.4975C 7.18708 15.1828 7.42402 14.8681 7.50299 14.4748C 7.58197 14.0814 7.66095 13.7668 7.66095 13.4521L 7.66095 3.22536C 7.66095 2.91069 7.58197 2.59602 7.50299 2.20268C 7.42402 1.80935 7.1081 1.41601 6.79219 1.10134ZM 5.05464 4.5627C 5.05464 4.95604 5.05464 5.42804 5.05464 6.13605C 5.05464 6.84405 5.05464 7.78806 5.05464 8.8894C 5.05464 10.0694 5.05464 11.4854 5.05464 13.2161C 5.05464 13.9241 4.73873 14.3174 4.1069 14.3174L 2.76426 14.3174C 2.68528 14.3174 2.68528 14.3174 2.68528 14.2388L 2.68528 2.12402C 2.68528 2.04535 2.68528 2.04535 2.76426 2.04535L 3.86996 2.04535C 4.18588 2.04535 4.42281 2.12401 4.65975 2.28135C 4.89669 2.43868 5.05464 2.75336 5.05464 3.14669C 5.05464 3.30403 5.05464 3.38269 5.05464 3.46136C 5.05464 3.54003 5.05464 3.61869 5.05464 3.77603C 5.05464 3.93336 5.05464 4.24803 5.05464 4.5627Z"/>
<path id="path11_fill" d="M 7.50299 8.33873C 7.50299 8.33873 7.42401 8.26006 7.26605 8.1814C 7.1081 8.10273 6.95014 8.02406 6.79219 7.86673C 6.63423 7.70939 6.31831 7.63072 6.08137 7.47339C 5.84443 7.31605 5.52852 7.15872 5.29158 7.00139C 4.65975 6.60805 3.94894 6.21472 3.15915 5.74271C 3.15915 5.74271 3.15916 5.74271 3.08018 5.66405C 3.0012 5.66405 3.00119 5.58537 2.92221 5.50671C 2.92221 5.42804 2.84324 5.42804 2.84324 5.27071L 2.84324 5.19204L 2.84324 2.20268C 2.84324 2.12402 2.84324 2.12402 2.92221 2.12402L 4.97567 2.12402C 5.05465 2.12402 5.05465 2.12402 5.05465 2.20268L 5.05465 4.48404L 7.50299 4.48404L 7.50299 2.20268C 7.50299 1.88801 7.42402 1.65201 7.34504 1.33735C 7.26606 1.10134 7.1081 0.86534 6.87116 0.629338C 6.7132 0.472004 6.39729 0.31467 6.16035 0.157336C 5.92342 0.0786685 5.6075 6.00184e-07 5.29158 6.00184e-07L 2.44835 6.00184e-07C 2.13243 6.00184e-07 1.81651 0.0786685 1.57958 0.157336C 1.34264 0.31467 1.10571 0.472004 0.86877 0.629338C 0.710812 0.86534 0.55285 1.02268 0.394892 1.33735C 0.236934 1.57335 0.236937 1.88801 0.236937 2.20268L 0.236937 6.52938C 0.236937 6.68672 0.236941 6.84405 0.31592 7.00139C 0.394899 7.15872 0.473873 7.23739 0.631831 7.31606C 0.631831 7.31606 0.789784 7.39473 0.947742 7.55206C 1.1057 7.63073 1.42162 7.78806 1.65856 8.02406C 1.97447 8.1814 2.29039 8.4174 2.6063 8.57473C 2.92222 8.81073 3.23813 8.96807 3.55405 9.20407C 3.86996 9.36141 4.18588 9.59741 4.42282 9.67608C 4.65976 9.83341 4.81771 9.91208 4.97567 9.99075L 5.05465 9.99075L 5.05465 10.0694L 5.05465 14.3961C 5.05465 14.4748 5.05465 14.4748 4.97567 14.4748L 2.52732 14.4748C 2.44834 14.4748 2.44835 14.4748 2.44835 14.3961L 2.44835 10.9348L -2.41024e-06 10.9348L -2.41024e-06 14.3961C -2.41024e-06 14.7108 0.0789741 14.9468 0.157953 15.2615C 0.315911 15.4975 0.394894 15.7335 0.631831 15.9695C 0.789789 16.1268 1.02672 16.2841 1.34264 16.4415C 1.57957 16.5201 1.89549 16.5988 2.21141 16.5988L 5.37056 16.5988C 5.68648 16.5988 5.92342 16.5201 6.23934 16.4415C 6.47627 16.2841 6.79218 16.1268 6.95014 15.9695C 7.1081 15.8121 7.34504 15.5761 7.42402 15.2615C 7.58198 15.0254 7.58198 14.7108 7.58198 14.3961L 7.58198 8.81074C 7.73993 8.57473 7.66095 8.4174 7.50299 8.33873Z"/>
<path id="path12_fill" d="M 2.84325 0L 0 0L 0 18.4868L 2.84325 18.4868L 2.84325 0Z"/>
<path id="path13_fill" d="M 6.79218 16.0481L 3.23813 16.0481C 3.15915 16.0481 3.15916 16.0481 3.15916 15.9695L 3.15916 -6.00184e-07L 4.82049e-06 -6.00184e-07L 4.82049e-06 18.4081C 4.82049e-06 18.4868 -2.4126e-06 18.4868 0.0789765 18.4868L 0.315916 18.4868L 6.79218 18.4868C 6.79218 18.4868 6.87116 18.4868 6.87116 18.4081L 6.87116 16.2055C 6.95014 16.1268 6.87116 16.0481 6.79218 16.0481Z"/>
<path id="path14_fill" d="M 40.3582 0L 9.47747 0C 4.26486 0 0 4.24803 0 9.44007C 0 14.6321 4.26486 18.8801 9.47747 18.8801L 46.9924 18.8801L 50.2306 18.8801C 50.4675 17.8575 50.7044 16.8348 50.8624 15.7335L 40.3582 15.7335L 9.47747 15.7335C 6.0024 15.7335 3.15916 12.9014 3.15916 9.44007C 3.15916 5.97871 6.0024 3.14669 9.47747 3.14669L 47.6243 3.14669L 50.7834 3.14669C 50.6255 2.12402 50.4675 1.02267 50.2306 0L 40.3582 0Z"/>
<path id="path15_fill" d="M 33.2501 0L 1.57958 0C 0.71081 0 0 0.708006 0 1.57335C 0 2.43869 0.71081 3.14669 1.57958 3.14669L 41.069 3.14669L 138.924 3.14669C 138.924 2.59602 138.924 2.12402 138.924 1.57335C 138.924 1.02267 138.924 0.550671 138.845 0L 33.2501 0Z"/>
<path id="path16_fill" d="M 68.2378 72.3936C 68.1588 72.4722 68.0798 72.5509 68.0008 72.5509L 68.0008 72.3936L 63.9729 72.3936L 43.8333 72.3936C 27.2477 72.3936 13.8213 59.0201 13.8213 42.5C 13.8213 25.9799 27.2477 12.6064 43.8333 12.6064L 68.0798 12.6064L 68.0798 12.3704C 68.1588 12.4491 68.2378 12.5278 68.3167 12.6064L 72.9765 12.6064C 72.8975 12.5278 72.8975 12.5278 72.8185 12.4491C 56.154 -4.1497 29.1432 -4.1497 12.4787 12.4491C 4.42282 20.4732 0 31.1719 0 42.5C 0 53.8281 4.42282 64.5268 12.4787 72.5509C 29.1432 89.1497 56.154 89.1497 72.8185 72.5509L 72.8975 72.4722L 68.2378 72.4722L 68.2378 72.3936Z"/>
<path id="path17_fill" d="M 48.0192 0L 25.2732 0C 11.373 0 -6.02561e-07 11.3281 -6.02561e-07 25.1735C -6.02561e-07 39.019 11.373 50.3471 25.2732 50.3471L 54.5744 50.3471L 58.6023 50.3471C 59.3921 49.3244 60.1029 48.223 60.7348 47.2004L 56.9438 47.2004L 25.2732 47.2004C 13.1105 47.2004 3.15916 37.2883 3.15916 25.1735C 3.15916 13.0588 13.1105 3.14669 25.2732 3.14669L 56.9438 3.14669C 56.9438 3.14669 56.9438 3.14669 56.9438 3.22536L 60.7348 3.22536C 60.1029 2.12402 59.3921 1.10134 58.6023 0.0786676L 48.0192 0Z"/>
<path id="path18_fill" d="M 40.3582 0L 17.3754 0C 7.81891 0 0 7.78806 0 17.3068C 0 26.8255 7.81891 34.6136 17.3754 34.6136L 43.6753 34.6136L 55.5222 34.6136C 55.996 33.5909 56.3909 32.5683 56.7858 31.4669L 48.2561 31.4669L 17.3754 31.4669C 9.55645 31.4669 3.15916 25.0949 3.15916 17.3068C 3.15916 9.51874 9.55645 3.14669 17.3754 3.14669L 53.3897 3.14669C 53.3897 3.14669 53.3897 3.14669 53.3897 3.22536L 56.7858 3.22536C 56.3909 2.20268 55.996 1.10134 55.5222 0.0786661L 40.3582 0Z"/>
</defs>
</svg>
