<svg width="10000" height="228" viewBox="0 0 10000 228" xmlns="http://www.w3.org/2000/svg" xmlns:xlink="http://www.w3.org/1999/xlink">
    <title>
        Union
    </title>
    <desc>
        Created using Figma
    </desc>
    <use xlink:href="#a" fill="#FFF"/>
    <defs>
        <path id="a" d="M0 0v126.847c71.082-8.519 139.262-15.759 202-20.714v.064l.754-.124c47.195-3.716 91.301-6.135 131.246-6.827 39.945.692 84.051 3.111 131.246 6.827l.754.124v-.064c146.289 11.554 322.137 35.532 495.477 59.169C1199.4 197.746 1435.68 228.763 1676 227.756c146.03.612 375-30.611 608.52-62.454 173.34-23.637 349.19-47.615 495.48-59.169v.064l.75-.124c47.2-3.716 91.31-6.135 131.25-6.827 39.94.692 84.05 3.111 131.25 6.827l.75.124v-.064c146.29 11.554 322.14 35.532 495.48 59.169 233.52 31.843 462.49 63.066 608.52 62.454 146.03.612 375-30.611 608.52-62.454 173.34-23.637 349.19-47.615 495.48-59.169v.064l.75-.124c47.2-3.716 91.31-6.135 131.25-6.827 39.94.692 84.05 3.111 131.25 6.827l.75.124v-.064c146.29 11.554 322.14 35.532 495.48 59.169 189.25 25.806 375.51 51.205 517.06 59.582 22.5 2.224 48.5 3.096 77.46 2.837 28.96.259 54.96-.613 77.46-2.837 141.55-8.377 327.81-33.776 517.06-59.582 173.34-23.637 349.19-47.615 495.48-59.169v.064l.75-.124c47.2-3.716 91.31-6.135 131.25-6.827 39.94.692 84.05 3.111 131.25 6.827l.75.124v-.064c146.29 11.554 322.14 35.532 495.48 59.169 242.79 33.107 480.67 65.545 625.52 62.229 144.86 3.316 382.73-29.122 625.52-62.229 99-13.5 198.82-27.111 293.48-38.455V0H0z"/>
    </defs>
</svg>
