<svg width="10009" height="676" viewBox="0 0 10009 676" xmlns="http://www.w3.org/2000/svg" xmlns:xlink="http://www.w3.org/1999/xlink">
    <title>
        Group 2
    </title>
    <desc>
        Created using Figma
    </desc>
    <use xlink:href="#a" transform="translate(4.5 61.484)" fill="#F5F5F5"/>
    <use xlink:href="#b" transform="translate(4774.8)" fill="#F5F5F5"/>
    <use xlink:href="#c" transform="translate(0 60.765)" fill="#FFF"/>
    <defs>
        <path id="a" d="M4456.98.588c-557.11-4.16-1297.09 77.946-1738.97 149.428-441.88 71.483-1349 68-1603.5 44-254.502-24-856.502-110.5-1114.51-26.5.012 76.5.01 214 .01 214 1028 0 4755-37.5 5745.5-37.5v-257.5c-336.56-41.48-951.8-92.58-1288.53-85.928z"/>
        <path id="b" d="M239.222 138.765C605.003 28.313 859.867.702 969.224.013V.006C970.372.001 971.538 0 972.722 0c1.184 0 2.352.001 3.5.006v.007c109.358.689 323.738 28.3 689.518 138.752 167.78 50.663 816.5 257.735 1590 52.235s1762.98 22 1975.48 129.5V498c-840.5 0-4690.793-61.896-4857.491-81.5-399.492 0-530.511-158.157-134.507-277.735z"/>
        <path id="c" d="M0 614.735v-267.5C260.084 167.303 981.939 16.313 1763 152.6c1253 218.635 2548 0 2548 0 141.04-30.578 622.3-130.124 994.67-149.364C5339.64.853 5376.12-.152 5414.5.018c38.38-.17 74.86.835 108.83 3.218C5895.7 22.476 6376.96 122.022 6518 152.6c0 0 1020 174.498 2039.5 46.816C9577 71.736 10009 232.735 10009 232.735v382H0z"/>
    </defs>
</svg>
