<svg width="107" height="120" viewBox="0 0 107 120" xmlns="http://www.w3.org/2000/svg" xmlns:xlink="http://www.w3.org/1999/xlink">
    <title>
        Group 4
    </title>
    <desc>
        Created using Figma
    </desc>
    <use xlink:href="#a" transform="translate(59.5 84)"/>
    <use xlink:href="#a" transform="matrix(-1 0 0 1 47.5 84)"/>
    <use xlink:href="#b" transform="translate(38 46)"/>
    <g>
        <use xlink:href="#c" transform="matrix(0 1 1 0 9 48)" fill="#D50000"/>
        <use xlink:href="#d" transform="scale(-1 1) rotate(31.338 -43.69 -64.655)" fill="#D50000"/>
        <use xlink:href="#e" transform="matrix(-1 0 0 1 32.5 27)" fill="#D50000"/>
        <use xlink:href="#f" transform="rotate(180 16.25 46.89)" fill="#D50000"/>
        <g>
            <use xlink:href="#c" transform="rotate(90 25 73)" fill="#D50000"/>
            <use xlink:href="#d" transform="rotate(31.338 9.81 126.073)" fill="#D50000"/>
            <use xlink:href="#e" transform="translate(74.5 27)" fill="#D50000"/>
            <use xlink:href="#f" transform="matrix(1 0 0 -1 74.5 93.78)" fill="#D50000"/>
        </g>
        <g transform="translate(-13984 2674)">
            <use xlink:href="#e" transform="rotate(-64.454 4909.5 -12443.122)" fill="#D50000"/>
        </g>
    </g>
    <defs>
        <path id="a" fill-rule="evenodd" d="M1 0a1 1 0 0 1 1 1c0 .451.123 1.131.451 1.662.295.478.744.838 1.549.838h10a1 1 0 0 1 .117.007c1.553.183 3.856.858 5.797 2.32C21.889 7.312 23.5 9.631 23.5 13v21.5a1 1 0 1 1-2 0V13c0-2.632-1.222-4.397-2.789-5.576C17.133 6.236 15.22 5.66 13.94 5.5H4c-1.595 0-2.646-.807-3.251-1.787C.177 2.786 0 1.715 0 1a1 1 0 0 1 1-1zm10.5 22.5a1 1 0 0 1 1 1v11a1 1 0 1 1-2 0v-11a1 1 0 0 1 1-1z"/>
        <path id="b" fill-rule="evenodd" d="M15.5 34C22.686 34 29 27.128 29 18S22.686 2 15.5 2 2 8.872 2 18s6.314 16 13.5 16zm0 2C24.06 36 31 27.941 31 18S24.06 0 15.5 0C6.94 0 0 8.059 0 18s6.94 18 15.5 18z"/>
        <path id="c" fill-rule="evenodd" d="M0 1a1 1 0 0 1 1-1h22a1 1 0 1 1 0 2H1a1 1 0 0 1-1-1z"/>
        <path id="d" fill-rule="evenodd" d="M0 1a1 1 0 0 1 1-1h24.228a1 1 0 1 1 0 2H1a1 1 0 0 1-1-1z"/>
        <path id="e" fill-rule="evenodd" d="M30.529 9a7 7 0 1 1-14 0 7 7 0 0 1 14 0zm2 0a9 9 0 0 1-16.63 4.777L1.432 20.683a1 1 0 0 1-.861-1.805l14.462-6.902A9 9 0 0 1 23.528 0a9 9 0 0 1 9 9z"/>
        <path id="f" fill-rule="evenodd" d="M.57 18.878a1 1 0 0 0 .86 1.805l14.47-6.906A9 9 0 0 0 32.529 9a9 9 0 0 0-9-9 9 9 0 0 0-8.497 11.976L.57 18.878zM30.529 9a7 7 0 1 1-14 0 7 7 0 0 1 14 0z"/>
    </defs>
</svg>
