<svg width="78" height="123" viewBox="0 0 78 123" xmlns="http://www.w3.org/2000/svg" xmlns:xlink="http://www.w3.org/1999/xlink">
    <title>
        Group
    </title>
    <desc>
        Created using Figma
    </desc>
    <use xlink:href="#a" transform="translate(.6 86.4)" fill="#FFF"/>
    <use xlink:href="#b" transform="translate(13.4 86.4)" fill="#FFF"/>
    <use xlink:href="#c" transform="translate(25.8 86.21)" fill="#FFF"/>
    <use xlink:href="#d" transform="translate(37.7 37.88)" fill="#FFF"/>
    <use xlink:href="#e" transform="translate(58.1 86.4)" fill="#FFF"/>
    <use xlink:href="#f" transform="translate(70.1 86.4)" fill="#FFF"/>
    <use xlink:href="#g" transform="translate(.6 107.04)" fill="#FFF"/>
    <use xlink:href="#h" transform="translate(15.1 107.04)" fill="#FFF"/>
    <use xlink:href="#i" transform="translate(24.7 107.04)" fill="#FFF"/>
    <use xlink:href="#j" transform="translate(35.9 107.04)" fill="#FFF"/>
    <use xlink:href="#k" transform="translate(47.8 107.04)" fill="#FFF"/>
    <use xlink:href="#l" transform="translate(59.2 107.04)" fill="#FFF"/>
    <use xlink:href="#m" transform="translate(70.5 107.42)" fill="#FFF"/>
    <use xlink:href="#n" transform="translate(30.2 31.19)" fill="#FFF"/>
    <use xlink:href="#o" transform="translate(.7 .82)" fill="#FFF"/>
    <use xlink:href="#p" transform="translate(16.3 17.44)" fill="#FFF"/>
    <use xlink:href="#q" transform="translate(23.3 24.12)" fill="#FFF"/>
    <g transform="translate(-21086 1434)">
        <use xlink:href="#r" transform="translate(21134.9 -1347.79)" fill="#FFF"/>
    </g>
    <defs>
        <path id="a" d="M2.484 16.239V9.552h2.674v6.687h2.484V2.1c0-.382 0-.573-.191-.764-.191-.19-.191-.573-.573-.764-.192-.19-.383-.382-.765-.382C5.923 0 5.54 0 5.35 0H2.101c-.382 0-.573 0-.955.191C.956.382.573.382.382.764.191.955 0 1.146 0 1.528v14.519h2.484v.192zm0-14.329s.19 0 0 0h2.483v5.54H2.484V1.91z"/>
        <path id="b" d="M6.113 9.361c.191-.191.573-.382.765-.573.19-.191.382-.573.573-.764.19-.382.19-.764.19-.955V2.1c0-.382 0-.573-.19-.764-.191-.19-.191-.573-.573-.764-.192-.19-.383-.382-.765-.382C5.923 0 5.54 0 5.158 0H0v16.239h2.484V9.743h2.674c.382-.19.764-.19.955-.382zm-.955-3.439c0 .382 0 .764-.19.956-.192.19-.192.382-.383.573-.191.19-.382.19-.573.19H2.484v-5.73h2.483v4.011h.191z"/>
        <path id="c" d="M7.069.573c-.191-.19-.383-.382-.765-.382C6.114 0 5.731 0 5.35 0H0v16.239h2.484V9.743h2.865c.382 0 .573 0 .955-.19.191-.192.574-.383.765-.574.19-.191.382-.573.573-.764.19-.382.19-.764.19-.955V2.293c0-.383 0-.574-.19-.765C7.45.955 7.26.764 7.069.573zm-1.91 5.54c0 .382 0 .765-.192.956-.19.19-.19.382-.382.573-.191.19-.382.19-.573.19H2.484v-5.73h2.483v4.011h.191z"/>
        <path id="d" d="M5.922 62.47H2.675V1.338C2.675.573 2.1 0 1.337 0 .573 0 0 .573 0 1.337v63.426h5.922v-2.292c0 .19 0 0 0 0z"/>
        <path id="e" d="M6.304 16.047v-2.1h-3.82V8.023h3.438v-1.91H2.484V1.91h4.011V0H0v16.239l6.304-.192c0 .192 0 .192 0 0z"/>
        <path id="f" d="M5.35 15.857c.381-.192.763-.574 1.145-.765.191-.382.383-.573.574-.955.19-.382.19-.764.19-.955V3.057c0-.382 0-.573-.19-.956-.191-.382-.383-.764-.574-.955C6.113.764 5.731.573 5.35.382 4.776.191 4.203 0 3.63 0H0v16.239h4.012c.19 0 .764-.192 1.337-.383zM2.1 13.947V1.91h1.147c.382 0 .573 0 .764.191.19.192.382.383.382.765V12.8c0 .764-.382 1.146-.955 1.146H2.1z"/>
        <path id="g" d="M8.979 0h-1.91c-.383 0-.574 0-.765.191l-.573.573s-.19.191-.19.382-.192.382-.192.382c0-.19 0-.19-.19-.382 0-.19-.192-.382-.192-.573-.19-.19-.19-.382-.573-.382C4.203 0 4.012 0 3.63 0H1.91C1.337 0 .955.191.573.573.191 1.146 0 1.528 0 2.101v12.8h2.101V2.675c0-.191 0-.382.192-.574.19-.19.382-.19.573-.19h.382c.19 0 .573 0 .764.19.19.192.382.383.382.574V14.9h1.91V2.675c0-.382.191-.574.382-.574.192-.19.383-.19.765-.19h.382c.19 0 .382 0 .573.19.19.192.19.383.19.574V14.9h2.102v-12.8c0-.573-.19-.955-.573-1.337C9.935.191 9.361 0 8.98 0z"/>
        <path id="h" d="M5.731 0H0v14.901h5.731v-1.91H2.293V7.45H5.54V5.922H2.292v-3.82h3.63L5.732 0c.19 0 .19 0 0 0z"/>
        <path id="i" d="M7.069 0H0v1.72h2.292v12.99h2.293V1.72h2.293L7.068 0z"/>
        <path id="j" d="M6.686 0H4.585v6.113H2.293V0H0v14.71h2.292V8.406h2.293V14.9h2.101V0c.192.191.192 0 0 0z"/>
        <path id="k" d="M6.495.573c-.19-.19-.382-.382-.573-.382C5.732 0 5.35 0 5.158 0H1.91c-.19 0-.573 0-.764.191C.956.382.764.382.573.573c-.19.191-.382.382-.382.573C0 1.337 0 1.72 0 1.91v11.08c0 .192 0 .574.191.765.191.191.191.382.382.573.191.191.382.382.573.382.191.191.573.191.764.191h3.248c.191 0 .573 0 .764-.19.191-.192.382-.192.573-.383.191-.19.383-.382.383-.573.19-.191.19-.573.19-.764V1.91c0-.192 0-.574-.19-.765-.192-.19-.192-.382-.383-.573zM4.776 12.991s0 .19 0 0H2.293V1.91h2.292v11.08h.191z"/>
        <path id="l" d="M6.113 1.146C5.923.764 5.54.573 4.967.382 4.585.191 4.012 0 3.44 0H0v14.901h3.63c.573 0 1.146-.19 1.528-.382.382-.19.764-.382.955-.764.191-.191.382-.573.573-.955 0-.382.192-.573.192-.955v-9.17c0-.191 0-.574-.192-.956-.19 0-.382-.382-.573-.573zM4.394 4.203V12.035c0 .574-.191.956-.764.956H2.484V1.91h.955c.19 0 .573 0 .764.19.191.192.191.574.191.956v1.146z"/>
        <path id="m" d="M6.495 7.26l-.19-.191c-.192 0-.192-.191-.383-.191-.19 0-.382-.192-.573-.383-.19-.19-.382-.19-.764-.382-.573-.382-1.146-.764-1.91-1.146l-.191-.191V1.91h1.91v2.102h2.101V1.91c0-.19 0-.573-.19-.764-.192-.19-.192-.382-.383-.573-.19-.19-.382-.382-.573-.382C5.16 0 4.776 0 4.585 0H2.101c-.19 0-.573 0-.764.191-.19.191-.382.191-.573.382-.19.191-.382.382-.382.573-.191.191-.191.573-.191.764v4.203c0 .191.191.191.191.382 0 0 .191.191.382.191.191.192.382.192.573.383.191.19.573.382.764.573.383.19.574.382.956.573.19.19.573.382.764.382.19.19.382.19.573.382v3.82H2.292V9.744H0V12.8c0 .19 0 .573.191.764.191.191.191.382.382.573.191.191.382.382.573.382.191.191.573.191.764.191h2.866c.191 0 .573 0 .764-.19.191-.192.382-.192.573-.383.191-.19.382-.382.382-.573.191-.191.191-.573.191-.764V7.833c0-.382 0-.573-.19-.573z"/>
        <path id="n" d="M14.328 45.85l2.866-.573V8.597A8.561 8.561 0 0 0 8.597 0 8.561 8.561 0 0 0 0 8.597v36.68l2.866.573V8.597c0-3.057 2.483-5.731 5.73-5.731 3.058 0 5.732 2.483 5.732 5.73V45.85z"/>
        <path id="o" d="M38.304 12.418c14.901 0 26.937 12.035 26.937 26.937v26.172l.19-.19c14.902-14.902 14.902-39.164 0-54.257C58.173 4.012 48.43 0 38.305 0S18.435 4.012 11.176 11.271c-14.901 14.902-14.901 39.164 0 54.256l.191.191V39.546c-.191-15.093 12.036-27.128 26.937-27.128z"/>
        <path id="p" d="M42.411 54.447c.956-.573 1.91-1.146 2.866-1.91V22.542C45.468 10.125 35.152 0 22.734 0S0 10.125 0 22.543v29.993c.955.765 1.91 1.338 2.866 1.91V22.544c0-10.89 8.979-19.868 19.868-19.868 10.89 0 19.868 8.979 19.868 19.868l-.19 31.904z"/>
        <path id="q" d="M2.866 51.2V15.856c0-7.07 5.73-12.8 12.8-12.8 7.068 0 12.8 5.73 12.8 12.8v35.342l2.865-1.146V15.665C31.33 7.07 24.262 0 15.665 0 7.07 0 0 7.069 0 15.665v34.388l2.866 1.146z"/>
        <path id="r" d="M2.484 0H0v16.43h2.484V0z"/>
    </defs>
</svg>
