<svg width="180" height="85" viewBox="0 0 180 85" xmlns="http://www.w3.org/2000/svg">
    <g fill="none">
        <path d="M95.643 36.129c.079 0 .079 0 .079-.08v-7.473h2.922v7.474c0 .079 0 .079.08.079h2.684c.08 0 .08 0 .08-.08V20.08c0-.314-.08-.629-.238-.944a2.825 2.825 0 0 0-.552-.786 2.837 2.837 0 0 0-.79-.551 2.11 2.11 0 0 0-.948-.236h-3.791c-.316 0-.71.079-.948.236a2.837 2.837 0 0 0-.79.55 2.825 2.825 0 0 0-.552.787c-.158.315-.158.63-.158.944v15.97c0 .079 0 .079.079.079h2.843zm.079-16.049c0-.078 0-.078.079-.078h2.764c.08 0 .08 0 .08.078v6.136h-2.923V20.08z" fill="#fff"/>
        <path d="M114.676 28.419c.316-.158.632-.394.869-.63s.474-.55.553-.944c.158-.393.237-.786.237-1.18V20.08c0-.315-.08-.63-.237-.944a2.825 2.825 0 0 0-.553-.787 2.837 2.837 0 0 0-.79-.55 2.193 2.193 0 0 0-1.027-.237h-6.081c-.079 0-.079 0-.079.08V35.97c0 .078 0 .078.079.078h2.685c.08 0 .08 0 .08-.078v-7.316c0-.08 0-.08.078-.08h3.08c.474.08.79 0 1.106-.156zm-1.106-3.934c0 .394-.079.787-.158 1.023-.158.236-.237.472-.473.63-.158.157-.395.235-.553.314-.158.079-.316.079-.474.079h-1.343c-.079 0-.079 0-.079-.08v-6.45c0-.078 0-.078.08-.078h2.921c.08 0 .08 0 .08.078v4.484z" fill="#fff"/>
        <path d="M130.315 18.35a2.837 2.837 0 0 0-.79-.551 2.193 2.193 0 0 0-1.027-.237h-6.081c-.079 0-.079 0-.079.08V35.97c0 .078 0 .078.079.078h2.685c.08 0 .08 0 .08-.078v-7.316c0-.08 0-.08.078-.08h3.08c.395 0 .711-.078 1.027-.235.316-.157.632-.393.869-.63.237-.235.474-.55.553-.943.158-.394.237-.787.237-1.18V20c0-.314-.08-.63-.237-.944-.08-.236-.316-.55-.474-.708zm-2.054 6.135c0 .394-.079.787-.158 1.023-.158.236-.236.472-.473.63-.158.157-.395.235-.553.314-.158.079-.316.079-.474.079h-1.343c-.079 0-.079 0-.079-.08v-6.45c0-.078 0-.078.08-.078h2.921c.08 0 .08 0 .08.078v4.484z" fill="#fff"/>
        <path d="M165.934 36.05v-2.282c0-.079 0-.079-.079-.079h-4.265v-6.844h3.95c.078 0 .078 0 .078-.078v-1.888c0-.079 0-.079-.079-.079h-3.949v-4.799h4.423c.079 0 .079 0 .079-.078v-2.124c0-.079 0-.079-.079-.079h-7.266c-.079 0-.079 0-.079.079v18.33c0 .078 0 .078.079.078h7.03c.157-.079.157-.157.157-.157z" fill="#fff"/>
        <path d="M177.86 35.735c.474-.236.948-.551 1.185-.866.316-.314.474-.708.632-1.18.079-.393.158-.786.158-1.18V21.181c0-.314-.08-.708-.237-1.101a4.691 4.691 0 0 0-.711-1.18c-.316-.393-.79-.708-1.343-.944a4.894 4.894 0 0 0-1.974-.394h-4.186c-.079 0-.079 0-.079.08V35.97c0 .078 0 .078.079.078h4.423c.948.079 1.58-.078 2.053-.314zm-3.475-2.046c-.079 0-.079 0-.079-.078V20c0-.078 0-.078.08-.078h1.184c.316 0 .632.078.948.314.316.158.395.472.395.944v11.25c0 .786-.316 1.18-1.027 1.18h-1.5v.078z" fill="#fff"/>
        <path d="M102.751 48.557h-2.053c-.316 0-.632.08-.79.236-.237.158-.395.315-.553.472-.158.158-.237.394-.316.551-.079.236-.079.393-.158.55 0-.157-.079-.314-.158-.471-.079-.158-.158-.394-.316-.55-.158-.158-.316-.316-.553-.473-.237-.157-.474-.236-.868-.236h-2.054c-.632 0-1.106.236-1.58.63-.394.471-.631.943-.631 1.573v14.239c0 .078 0 .078.079.078h2.369c.079 0 .079 0 .079-.079v-13.53c0-.236.079-.394.158-.55.158-.158.316-.237.632-.237h.474c.316 0 .553.079.79.157.236.158.315.315.315.708v13.531c0 .079 0 .079.08.079h2.053c.079 0 .079 0 .079-.079v-13.61c0-.314.079-.55.316-.707.237-.079.474-.158.79-.158h.473c.316 0 .474.08.632.236.158.158.158.394.158.551v13.53c0 .08 0 .08.08.08h2.368c.08 0 .08 0 .08-.08v-14.16c0-.629-.237-1.1-.632-1.573-.237-.472-.79-.708-1.343-.708z" fill="#fff"/>
        <path d="M116.887 48.557h-6.476c-.079 0-.079 0-.079.08v16.44c0 .08 0 .08.079.08h6.318c.08 0 .08 0 .08-.08v-2.045c0-.078 0-.078-.08-.078h-3.79v-6.137h3.553c.08 0 .08 0 .08-.078v-1.652c0-.079 0-.079-.08-.079h-3.554v-4.327h4.028c.08 0 .08 0 .08-.078v-1.967c-.08-.079-.08-.079-.159-.079z" fill="#fff"/>
        <path d="M128.419 48.557H120.6c-.079 0-.079 0-.079.08v1.966c0 .078 0 .078.079.078h2.606v14.475c0 .079 0 .079.08.079h2.448c.079 0 .079 0 .079-.079V50.681h2.527c.079 0 .079 0 .079-.078v-1.967c.079-.079 0-.079 0-.079z" fill="#fff"/>
        <path d="M140.66 48.557h-2.447c-.08 0-.08 0-.08.08v6.843c0 .079 0 .079-.078.079h-2.528c-.079 0-.079 0-.079-.079v-6.844c0-.079 0-.079-.079-.079h-2.448c-.079 0-.079 0-.079.08v16.362c0 .079 0 .079.079.079h2.448c.08 0 .08 0 .08-.08v-7.237l.078-.078h2.528c.079 0 .079 0 .079.078v7.16c0 .078 0 .078.079.078h2.448c.079 0 .079 0 .079-.079V48.636l-.08-.079z" fill="#fff"/>
        <path d="M153.454 49.187l-.71-.472c-.317-.079-.554-.158-.87-.158h-3.554a2.85 2.85 0 0 0-.868.158l-.711.472-.474.708c-.158.314-.158.55-.158.865v12.194c0 .314.079.629.158.865.158.236.237.472.474.708s.395.315.71.472c.238.079.554.157.87.157h3.553c.316 0 .553-.078.87-.157.236-.157.552-.315.71-.472.237-.157.395-.393.474-.708.158-.236.158-.55.158-.865V50.76c0-.315-.08-.55-.158-.865-.08-.236-.237-.472-.474-.708zm-1.895 13.767c0 .078 0 .078-.08.078h-2.685c-.079 0-.079-.079-.079-.079V50.76c0-.079 0-.079.08-.079h2.685c.079 0 .079 0 .079.08v12.192z" fill="#fff"/>
        <path d="M166.33 49.737c-.317-.314-.712-.629-1.185-.786-.474-.236-1.106-.315-1.817-.315h-3.712c-.079 0-.079 0-.079.079v16.441c0 .079 0 .079.079.079h4.028c.71 0 1.264-.079 1.737-.315.474-.236.79-.472 1.106-.786.237-.315.474-.63.553-1.023.079-.394.158-.708.158-1.023V51.861c0-.314-.079-.629-.158-1.022-.079-.394-.395-.787-.71-1.102zm-1.738 3.462v8.653c0 .708-.316 1.101-.948 1.101H162.3c-.079 0-.079 0-.079-.078V50.76c0-.079 0-.079.08-.079h1.105c.316 0 .553.079.79.236.237.158.395.472.395.866v1.416z" fill="#fff"/>
        <path d="M179.835 56.896s-.079-.079-.237-.157c-.158-.079-.316-.158-.474-.315-.158-.157-.474-.236-.71-.393-.238-.158-.553-.315-.79-.472-.632-.394-1.343-.787-2.133-1.259l-.079-.079c-.079 0-.079-.078-.158-.157 0-.079-.079-.079-.079-.236V50.76c0-.079 0-.079.08-.079h2.053c.079 0 .079 0 .079.08v2.28h2.448v-2.28c0-.316-.079-.552-.158-.866-.079-.236-.237-.472-.474-.708-.158-.158-.474-.315-.71-.472a2.85 2.85 0 0 0-.87-.158h-2.843a2.85 2.85 0 0 0-.868.158l-.711.472c-.158.236-.316.393-.474.708-.158.236-.158.55-.158.865v4.327c0 .157 0 .314.079.472a.615.615 0 0 0 .316.314s.158.08.316.236c.158.08.474.236.71.472.316.158.632.394.948.551.316.236.632.393.948.63.316.157.632.393.869.471.237.158.395.236.553.315h.079v4.406c0 .078 0 .078-.08.078h-2.448c-.079 0-.079 0-.079-.078v-3.462h-2.448v3.462c0 .314.079.55.158.865.158.236.237.472.474.708.158.157.395.315.71.472.238.079.553.157.87.157h3.159c.315 0 .552-.078.868-.157.237-.157.553-.315.711-.472.158-.157.395-.393.474-.708.158-.236.158-.55.158-.865v-5.586c.158-.236.079-.393-.079-.472z" fill="#fff"/>
        <path d="M151.323 17.563h-2.843v18.486h2.843V17.563z" fill="#fff"/>
        <path d="M142.32 33.61h-3.555c-.079 0-.079 0-.079-.078v-15.97h-3.159v18.409c0 .078 0 .078.079.078h6.713s.08 0 .08-.078v-2.203c.078-.079 0-.157-.08-.157z" fill="#fff"/>
        <g>
            <path d="M74.32 33.06H43.437c-5.212 0-9.477 4.248-9.477 9.44 0 5.192 4.265 9.44 9.477 9.44h40.753c.237-1.023.474-2.045.632-3.147H43.44c-3.476 0-6.319-2.832-6.319-6.293 0-3.461 2.843-6.294 6.318-6.294h41.307c-.159-1.022-.317-2.124-.554-3.146H74.32z" fill="#fff"/>
            <path d="M74.319 40.926H42.648c-.869 0-1.58.709-1.58 1.574 0 .865.711 1.573 1.58 1.573h137.344V42.5c0-.55 0-1.023-.079-1.574H74.318z" fill="#D50000"/>
            <path d="M68.238 72.394c-.08.078-.158.157-.237.157v-.157H43.833c-16.585 0-30.012-13.374-30.012-29.894 0-16.52 13.427-29.894 30.012-29.894H68.08v-.236l.237.236h4.66l-.159-.157c-16.664-16.599-43.675-16.599-60.34 0C4.424 20.473 0 31.172 0 42.5s4.423 22.027 12.479 30.05c16.664 16.6 43.675 16.6 60.34 0l.078-.078h-4.66v-.078z" fill="#fff"/>
            <path d="M66.421 17.326H43.675c-13.9 0-25.273 11.328-25.273 25.174 0 13.845 11.373 25.173 25.273 25.173h33.33c.79-1.022 1.5-2.124 2.132-3.146H43.676c-12.163 0-22.115-9.912-22.115-22.027s9.952-22.027 22.114-22.027h31.671v.079h3.791a27.579 27.579 0 0 0-2.132-3.147l-10.583-.079z" fill="#fff"/>
            <path d="M66.42 25.193H43.439c-9.557 0-17.376 7.788-17.376 17.307 0 9.519 7.82 17.307 17.376 17.307h38.147a37.393 37.393 0 0 0 1.263-3.147h-39.41c-7.82 0-14.216-6.372-14.216-14.16s6.397-14.16 14.216-14.16h36.014v.078h3.396c-.395-1.022-.79-2.124-1.263-3.146l-15.164-.079z" fill="#fff"/>
        </g>
    </g>
</svg>
