<?xml version="1.0" encoding="UTF-8"?><!DOCTYPE svg PUBLIC "-//W3C//DTD SVG 1.1//EN" "http://www.w3.org/Graphics/SVG/1.1/DTD/svg11.dtd"><svg xmlns="http://www.w3.org/2000/svg" xmlns:xlink="http://www.w3.org/1999/xlink"><defs>
        <path id="a" d="M20.003 18.2l-6.741-6.74 4.194-4.194a1.27 1.27 0 0 0-.498-2.107L1.676.065a1.274 1.274 0 0 0-1.611 1.61l5.094 15.281a1.278 1.278 0 0 0 1.208.871c.334 0 .66-.132.9-.373l4.194-4.193L18.201 20l1.802-1.8zm-13.08-4.005L3.288 3.287l10.911 3.636-7.274 7.272z"/>
    </defs><symbol id="icon-arrow-bottom" viewBox="0 0 30 29">
    <use xlink:href="#a" transform="rotate(-135 13.363 11.048)"/>
    
</symbol><symbol id="icon-close" viewBox="0 0 357 357">
    <path d="M357 35.7L321.3 0 178.5 142.8 35.7 0 0 35.7l142.8 142.8L0 321.3 35.7 357l142.8-142.8L321.3 357l35.7-35.7-142.8-142.8z"/>
</symbol></svg>